<mxfile host="app.diagrams.net" modified="2022-03-14T18:03:44.587Z" agent="5.0 (Windows NT 10.0; Win64; x64) AppleWebKit/537.36 (KHTML, like Gecko) Chrome/99.0.4844.51 Safari/537.36" etag="xI6uZZuKmCkvqtMdYpRN" version="17.1.2" type="github">
  <diagram id="fSJueWIgCiBAFNXciU3A" name="Page-1">
    <mxGraphModel dx="2496" dy="1354" grid="1" gridSize="10" guides="1" tooltips="1" connect="1" arrows="1" fold="1" page="1" pageScale="1" pageWidth="827" pageHeight="1169" math="0" shadow="0">
      <root>
        <mxCell id="0" />
        <mxCell id="1" parent="0" />
        <mxCell id="hJhPngqoGngPgBKnKyxH-4" value="" style="group" parent="1" vertex="1" connectable="0">
          <mxGeometry x="10" y="20" width="40" height="1340" as="geometry" />
        </mxCell>
        <mxCell id="hJhPngqoGngPgBKnKyxH-2" value="" style="rounded=0;whiteSpace=wrap;html=1;" parent="hJhPngqoGngPgBKnKyxH-4" vertex="1">
          <mxGeometry width="40" height="1280" as="geometry" />
        </mxCell>
        <mxCell id="hJhPngqoGngPgBKnKyxH-3" value="Zaopatrzenie" style="text;html=1;strokeColor=none;fillColor=none;align=center;verticalAlign=middle;whiteSpace=wrap;rounded=0;rotation=-90;" parent="hJhPngqoGngPgBKnKyxH-4" vertex="1">
          <mxGeometry x="-19.999999999999996" y="626.4935064935067" width="80" height="52.207792207792224" as="geometry" />
        </mxCell>
        <mxCell id="hJhPngqoGngPgBKnKyxH-5" value="" style="group;fontStyle=1" parent="1" vertex="1" connectable="0">
          <mxGeometry x="110" y="40" width="940" height="70" as="geometry" />
        </mxCell>
        <mxCell id="hJhPngqoGngPgBKnKyxH-8" value="" style="group;fontStyle=1" parent="hJhPngqoGngPgBKnKyxH-5" vertex="1" connectable="0">
          <mxGeometry width="940" height="70" as="geometry" />
        </mxCell>
        <mxCell id="hJhPngqoGngPgBKnKyxH-6" value="" style="rounded=0;whiteSpace=wrap;html=1;" parent="hJhPngqoGngPgBKnKyxH-8" vertex="1">
          <mxGeometry width="940" height="70" as="geometry" />
        </mxCell>
        <mxCell id="hJhPngqoGngPgBKnKyxH-7" value="&lt;b&gt;SK_01 - Produkcja szkła&lt;/b&gt;" style="text;html=1;strokeColor=none;fillColor=none;align=center;verticalAlign=middle;whiteSpace=wrap;rounded=0;rotation=0;container=1;" parent="hJhPngqoGngPgBKnKyxH-8" vertex="1">
          <mxGeometry x="222.63377777777777" width="494.7324444444445" height="22.105263157894733" as="geometry">
            <mxRectangle x="132.63288888888889" width="160" height="10" as="alternateBounds" />
          </mxGeometry>
        </mxCell>
        <mxCell id="APXlqNI634iQu10qJnpK-6" value="" style="endArrow=none;html=1;rounded=0;" edge="1" parent="hJhPngqoGngPgBKnKyxH-8">
          <mxGeometry width="50" height="50" relative="1" as="geometry">
            <mxPoint x="-60" y="35" as="sourcePoint" />
            <mxPoint x="990" y="35" as="targetPoint" />
          </mxGeometry>
        </mxCell>
        <mxCell id="APXlqNI634iQu10qJnpK-7" value="I_1" style="edgeLabel;html=1;align=center;verticalAlign=middle;resizable=0;points=[];fontSize=15;" vertex="1" connectable="0" parent="APXlqNI634iQu10qJnpK-6">
          <mxGeometry x="-0.9149" y="-2" relative="1" as="geometry">
            <mxPoint x="-15" as="offset" />
          </mxGeometry>
        </mxCell>
        <mxCell id="APXlqNI634iQu10qJnpK-8" value="S_1" style="edgeLabel;html=1;align=center;verticalAlign=middle;resizable=0;points=[];fontSize=15;" vertex="1" connectable="0" parent="APXlqNI634iQu10qJnpK-6">
          <mxGeometry x="-0.5973" relative="1" as="geometry">
            <mxPoint as="offset" />
          </mxGeometry>
        </mxCell>
        <mxCell id="APXlqNI634iQu10qJnpK-9" value="S_2" style="edgeLabel;html=1;align=center;verticalAlign=middle;resizable=0;points=[];fontSize=15;" vertex="1" connectable="0" parent="APXlqNI634iQu10qJnpK-6">
          <mxGeometry x="-0.284" relative="1" as="geometry">
            <mxPoint as="offset" />
          </mxGeometry>
        </mxCell>
        <mxCell id="APXlqNI634iQu10qJnpK-10" value="S_3" style="edgeLabel;html=1;align=center;verticalAlign=middle;resizable=0;points=[];fontSize=15;" vertex="1" connectable="0" parent="APXlqNI634iQu10qJnpK-6">
          <mxGeometry x="0.0327" y="-1" relative="1" as="geometry">
            <mxPoint as="offset" />
          </mxGeometry>
        </mxCell>
        <mxCell id="APXlqNI634iQu10qJnpK-11" value="S_4" style="edgeLabel;html=1;align=center;verticalAlign=middle;resizable=0;points=[];fontSize=15;" vertex="1" connectable="0" parent="APXlqNI634iQu10qJnpK-6">
          <mxGeometry x="0.3693" relative="1" as="geometry">
            <mxPoint as="offset" />
          </mxGeometry>
        </mxCell>
        <mxCell id="APXlqNI634iQu10qJnpK-12" value="S_5" style="edgeLabel;html=1;align=center;verticalAlign=middle;resizable=0;points=[];fontSize=15;" vertex="1" connectable="0" parent="APXlqNI634iQu10qJnpK-6">
          <mxGeometry x="0.7093" y="1" relative="1" as="geometry">
            <mxPoint as="offset" />
          </mxGeometry>
        </mxCell>
        <mxCell id="APXlqNI634iQu10qJnpK-13" value="S_6" style="edgeLabel;html=1;align=center;verticalAlign=middle;resizable=0;points=[];fontSize=15;" vertex="1" connectable="0" parent="APXlqNI634iQu10qJnpK-6">
          <mxGeometry x="0.9777" relative="1" as="geometry">
            <mxPoint x="12" as="offset" />
          </mxGeometry>
        </mxCell>
        <mxCell id="hJhPngqoGngPgBKnKyxH-17" value="" style="group;" parent="1" vertex="1" connectable="0">
          <mxGeometry x="110" y="120" width="940" height="190" as="geometry" />
        </mxCell>
        <mxCell id="hJhPngqoGngPgBKnKyxH-18" value="" style="rounded=0;whiteSpace=wrap;html=1;" parent="hJhPngqoGngPgBKnKyxH-17" vertex="1">
          <mxGeometry width="940" height="190" as="geometry" />
        </mxCell>
        <mxCell id="hJhPngqoGngPgBKnKyxH-19" value="FK_01 - Produkcja fasady" style="text;html=1;strokeColor=none;fillColor=none;align=center;verticalAlign=middle;whiteSpace=wrap;rounded=0;rotation=0;container=1;fontStyle=1" parent="hJhPngqoGngPgBKnKyxH-17" vertex="1">
          <mxGeometry x="222.63377777777782" width="494.7324444444445" height="29.999999999999996" as="geometry">
            <mxRectangle x="145" width="160" height="20" as="alternateBounds" />
          </mxGeometry>
        </mxCell>
        <mxCell id="hJhPngqoGngPgBKnKyxH-20" value="" style="group" parent="1" vertex="1" connectable="0">
          <mxGeometry x="110" y="650" width="940" height="260" as="geometry" />
        </mxCell>
        <mxCell id="hJhPngqoGngPgBKnKyxH-21" value="" style="rounded=0;whiteSpace=wrap;html=1;" parent="hJhPngqoGngPgBKnKyxH-20" vertex="1">
          <mxGeometry width="939.9999999999999" height="260.00000000000006" as="geometry" />
        </mxCell>
        <mxCell id="hJhPngqoGngPgBKnKyxH-22" value="FK_02 - Produkcja okna drewnianego" style="text;html=1;strokeColor=none;fillColor=none;align=center;verticalAlign=middle;whiteSpace=wrap;rounded=0;rotation=0;container=1;fontStyle=1" parent="hJhPngqoGngPgBKnKyxH-20" vertex="1">
          <mxGeometry x="222.63" width="494.73" height="31.200000000000003" as="geometry">
            <mxRectangle x="145" width="160" height="20" as="alternateBounds" />
          </mxGeometry>
        </mxCell>
        <mxCell id="hJhPngqoGngPgBKnKyxH-23" value="" style="group" parent="1" vertex="1" connectable="0">
          <mxGeometry x="110" y="950" width="940" height="140" as="geometry" />
        </mxCell>
        <mxCell id="hJhPngqoGngPgBKnKyxH-24" value="" style="rounded=0;whiteSpace=wrap;html=1;" parent="hJhPngqoGngPgBKnKyxH-23" vertex="1">
          <mxGeometry width="939.9999999999999" height="140" as="geometry" />
        </mxCell>
        <mxCell id="hJhPngqoGngPgBKnKyxH-25" value="FK_03 - Produkcja okna PVC" style="text;html=1;strokeColor=none;fillColor=none;align=center;verticalAlign=middle;whiteSpace=wrap;rounded=0;rotation=0;container=1;fontStyle=1" parent="hJhPngqoGngPgBKnKyxH-23" vertex="1">
          <mxGeometry x="222.6337777777778" width="494.73244444444447" height="22.105263157894733" as="geometry">
            <mxRectangle x="145" width="160" height="20" as="alternateBounds" />
          </mxGeometry>
        </mxCell>
        <mxCell id="hJhPngqoGngPgBKnKyxH-26" value="" style="group" parent="1" vertex="1" connectable="0">
          <mxGeometry x="110" y="320" width="940" height="180" as="geometry" />
        </mxCell>
        <mxCell id="hJhPngqoGngPgBKnKyxH-27" value="" style="rounded=0;whiteSpace=wrap;html=1;" parent="hJhPngqoGngPgBKnKyxH-26" vertex="1">
          <mxGeometry width="940.0000000000002" height="180" as="geometry" />
        </mxCell>
        <mxCell id="hJhPngqoGngPgBKnKyxH-28" value="FK_04 - Produkcja okna aluminiowego" style="text;html=1;strokeColor=none;fillColor=none;align=center;verticalAlign=middle;whiteSpace=wrap;rounded=0;rotation=0;container=1;fontStyle=1" parent="hJhPngqoGngPgBKnKyxH-26" vertex="1">
          <mxGeometry x="222.63377777777785" width="494.7324444444446" height="28.42105263157894" as="geometry">
            <mxRectangle x="145" width="160" height="20" as="alternateBounds" />
          </mxGeometry>
        </mxCell>
        <mxCell id="hJhPngqoGngPgBKnKyxH-29" value="" style="group" parent="1" vertex="1" connectable="0">
          <mxGeometry x="110" y="1140" width="940" height="100" as="geometry" />
        </mxCell>
        <mxCell id="hJhPngqoGngPgBKnKyxH-30" value="" style="rounded=0;whiteSpace=wrap;html=1;" parent="hJhPngqoGngPgBKnKyxH-29" vertex="1">
          <mxGeometry width="940.0000000000001" height="100" as="geometry" />
        </mxCell>
        <mxCell id="hJhPngqoGngPgBKnKyxH-31" value="FK_05 - Produkcja elementów mechanicznych" style="text;html=1;strokeColor=none;fillColor=none;align=center;verticalAlign=middle;whiteSpace=wrap;rounded=0;rotation=0;container=1;fontStyle=1" parent="hJhPngqoGngPgBKnKyxH-29" vertex="1">
          <mxGeometry x="222.63377777777782" y="10" width="494.7324444444445" height="15.789473684210524" as="geometry">
            <mxRectangle x="145" width="160" height="20" as="alternateBounds" />
          </mxGeometry>
        </mxCell>
        <mxCell id="hJhPngqoGngPgBKnKyxH-32" value="" style="endArrow=none;html=1;rounded=0;strokeWidth=5;" parent="1" edge="1">
          <mxGeometry width="50" height="50" relative="1" as="geometry">
            <mxPoint x="50" y="1280" as="sourcePoint" />
            <mxPoint x="1800" y="1280" as="targetPoint" />
          </mxGeometry>
        </mxCell>
        <mxCell id="APXlqNI634iQu10qJnpK-14" value="" style="endArrow=none;html=1;rounded=0;" edge="1" parent="1">
          <mxGeometry width="50" height="50" relative="1" as="geometry">
            <mxPoint x="620" y="150" as="sourcePoint" />
            <mxPoint x="1100" y="150" as="targetPoint" />
          </mxGeometry>
        </mxCell>
        <mxCell id="APXlqNI634iQu10qJnpK-22" value="F_18" style="edgeLabel;html=1;align=center;verticalAlign=middle;resizable=0;points=[];fontSize=15;" vertex="1" connectable="0" parent="APXlqNI634iQu10qJnpK-14">
          <mxGeometry x="0.9745" y="1" relative="1" as="geometry">
            <mxPoint x="6" y="1" as="offset" />
          </mxGeometry>
        </mxCell>
        <mxCell id="APXlqNI634iQu10qJnpK-23" value="" style="endArrow=none;html=1;rounded=0;" edge="1" parent="1">
          <mxGeometry width="50" height="50" relative="1" as="geometry">
            <mxPoint x="620" y="180" as="sourcePoint" />
            <mxPoint x="1100" y="180" as="targetPoint" />
          </mxGeometry>
        </mxCell>
        <mxCell id="APXlqNI634iQu10qJnpK-24" value="F_19" style="edgeLabel;html=1;align=center;verticalAlign=middle;resizable=0;points=[];fontSize=15;" vertex="1" connectable="0" parent="APXlqNI634iQu10qJnpK-23">
          <mxGeometry x="0.9745" y="1" relative="1" as="geometry">
            <mxPoint x="6" as="offset" />
          </mxGeometry>
        </mxCell>
        <mxCell id="APXlqNI634iQu10qJnpK-25" value="" style="endArrow=none;html=1;rounded=0;" edge="1" parent="1">
          <mxGeometry width="50" height="50" relative="1" as="geometry">
            <mxPoint x="50" y="210" as="sourcePoint" />
            <mxPoint x="1100" y="210" as="targetPoint" />
          </mxGeometry>
        </mxCell>
        <mxCell id="APXlqNI634iQu10qJnpK-26" value="F_21" style="edgeLabel;html=1;align=center;verticalAlign=middle;resizable=0;points=[];fontSize=15;" vertex="1" connectable="0" parent="APXlqNI634iQu10qJnpK-25">
          <mxGeometry x="0.9745" y="1" relative="1" as="geometry">
            <mxPoint x="13" as="offset" />
          </mxGeometry>
        </mxCell>
        <mxCell id="APXlqNI634iQu10qJnpK-27" value="F_20" style="edgeLabel;html=1;align=center;verticalAlign=middle;resizable=0;points=[];fontSize=15;" vertex="1" connectable="0" parent="APXlqNI634iQu10qJnpK-25">
          <mxGeometry x="0.0507" relative="1" as="geometry">
            <mxPoint x="228" as="offset" />
          </mxGeometry>
        </mxCell>
        <mxCell id="APXlqNI634iQu10qJnpK-28" value="I_4" style="edgeLabel;html=1;align=center;verticalAlign=middle;resizable=0;points=[];fontSize=15;" vertex="1" connectable="0" parent="APXlqNI634iQu10qJnpK-25">
          <mxGeometry x="-0.8802" y="2" relative="1" as="geometry">
            <mxPoint x="-33" as="offset" />
          </mxGeometry>
        </mxCell>
        <mxCell id="APXlqNI634iQu10qJnpK-29" value="" style="endArrow=none;html=1;rounded=0;" edge="1" parent="1">
          <mxGeometry width="50" height="50" relative="1" as="geometry">
            <mxPoint x="50" y="240" as="sourcePoint" />
            <mxPoint x="1100" y="240" as="targetPoint" />
            <Array as="points" />
          </mxGeometry>
        </mxCell>
        <mxCell id="APXlqNI634iQu10qJnpK-30" value="F_22" style="edgeLabel;html=1;align=center;verticalAlign=middle;resizable=0;points=[];fontSize=15;" vertex="1" connectable="0" parent="APXlqNI634iQu10qJnpK-29">
          <mxGeometry x="0.9745" y="1" relative="1" as="geometry">
            <mxPoint x="13" as="offset" />
          </mxGeometry>
        </mxCell>
        <mxCell id="APXlqNI634iQu10qJnpK-33" value="I_4" style="edgeLabel;html=1;align=center;verticalAlign=middle;resizable=0;points=[];fontSize=15;" vertex="1" connectable="0" parent="APXlqNI634iQu10qJnpK-29">
          <mxGeometry x="-0.8826" relative="1" as="geometry">
            <mxPoint x="-32" as="offset" />
          </mxGeometry>
        </mxCell>
        <mxCell id="APXlqNI634iQu10qJnpK-31" value="" style="endArrow=none;html=1;rounded=0;" edge="1" parent="1">
          <mxGeometry width="50" height="50" relative="1" as="geometry">
            <mxPoint x="620" y="270" as="sourcePoint" />
            <mxPoint x="1100" y="270" as="targetPoint" />
          </mxGeometry>
        </mxCell>
        <mxCell id="APXlqNI634iQu10qJnpK-32" value="F_23" style="edgeLabel;html=1;align=center;verticalAlign=middle;resizable=0;points=[];fontSize=15;" vertex="1" connectable="0" parent="APXlqNI634iQu10qJnpK-31">
          <mxGeometry x="0.9745" y="1" relative="1" as="geometry">
            <mxPoint x="6" as="offset" />
          </mxGeometry>
        </mxCell>
        <mxCell id="APXlqNI634iQu10qJnpK-34" value="" style="endArrow=none;html=1;rounded=0;" edge="1" parent="1">
          <mxGeometry width="50" height="50" relative="1" as="geometry">
            <mxPoint x="50" y="350" as="sourcePoint" />
            <mxPoint x="1110" y="350" as="targetPoint" />
          </mxGeometry>
        </mxCell>
        <mxCell id="APXlqNI634iQu10qJnpK-35" value="F_5" style="edgeLabel;html=1;align=center;verticalAlign=middle;resizable=0;points=[];fontSize=15;" vertex="1" connectable="0" parent="APXlqNI634iQu10qJnpK-34">
          <mxGeometry x="0.9745" y="1" relative="1" as="geometry">
            <mxPoint x="4" as="offset" />
          </mxGeometry>
        </mxCell>
        <mxCell id="APXlqNI634iQu10qJnpK-37" value="I_4" style="edgeLabel;html=1;align=center;verticalAlign=middle;resizable=0;points=[];fontSize=15;" vertex="1" connectable="0" parent="APXlqNI634iQu10qJnpK-34">
          <mxGeometry x="-0.8891" y="2" relative="1" as="geometry">
            <mxPoint x="-29" as="offset" />
          </mxGeometry>
        </mxCell>
        <mxCell id="APXlqNI634iQu10qJnpK-38" value="" style="endArrow=none;html=1;rounded=0;" edge="1" parent="1">
          <mxGeometry width="50" height="50" relative="1" as="geometry">
            <mxPoint x="50" y="380" as="sourcePoint" />
            <mxPoint x="300" y="380" as="targetPoint" />
          </mxGeometry>
        </mxCell>
        <mxCell id="APXlqNI634iQu10qJnpK-39" value="F_10" style="edgeLabel;html=1;align=center;verticalAlign=middle;resizable=0;points=[];fontSize=15;" vertex="1" connectable="0" parent="APXlqNI634iQu10qJnpK-38">
          <mxGeometry x="0.9745" y="1" relative="1" as="geometry">
            <mxPoint as="offset" />
          </mxGeometry>
        </mxCell>
        <mxCell id="APXlqNI634iQu10qJnpK-40" value="I_2" style="edgeLabel;html=1;align=center;verticalAlign=middle;resizable=0;points=[];fontSize=15;" vertex="1" connectable="0" parent="APXlqNI634iQu10qJnpK-38">
          <mxGeometry x="-0.8891" y="2" relative="1" as="geometry">
            <mxPoint x="16" as="offset" />
          </mxGeometry>
        </mxCell>
        <mxCell id="APXlqNI634iQu10qJnpK-42" value="F_2" style="edgeLabel;html=1;align=center;verticalAlign=middle;resizable=0;points=[];fontSize=15;" vertex="1" connectable="0" parent="APXlqNI634iQu10qJnpK-38">
          <mxGeometry x="0.0339" relative="1" as="geometry">
            <mxPoint as="offset" />
          </mxGeometry>
        </mxCell>
        <mxCell id="APXlqNI634iQu10qJnpK-43" value="" style="endArrow=none;html=1;rounded=0;fontSize=15;strokeWidth=2;" edge="1" parent="1">
          <mxGeometry width="50" height="50" relative="1" as="geometry">
            <mxPoint x="320" y="150" as="sourcePoint" />
            <mxPoint x="320" y="460" as="targetPoint" />
            <Array as="points">
              <mxPoint x="320" y="290" />
            </Array>
          </mxGeometry>
        </mxCell>
        <mxCell id="APXlqNI634iQu10qJnpK-44" value="" style="endArrow=none;html=1;rounded=0;fontSize=15;strokeWidth=2;" edge="1" parent="1">
          <mxGeometry width="50" height="50" relative="1" as="geometry">
            <mxPoint x="320" y="150" as="sourcePoint" />
            <mxPoint x="620" y="150" as="targetPoint" />
          </mxGeometry>
        </mxCell>
        <mxCell id="APXlqNI634iQu10qJnpK-45" value="F_10" style="edgeLabel;html=1;align=center;verticalAlign=middle;resizable=0;points=[];fontSize=15;fontStyle=1" vertex="1" connectable="0" parent="APXlqNI634iQu10qJnpK-44">
          <mxGeometry x="0.0541" y="2" relative="1" as="geometry">
            <mxPoint as="offset" />
          </mxGeometry>
        </mxCell>
        <mxCell id="APXlqNI634iQu10qJnpK-46" value="" style="endArrow=none;html=1;rounded=0;fontSize=15;strokeWidth=2;" edge="1" parent="1">
          <mxGeometry width="50" height="50" relative="1" as="geometry">
            <mxPoint x="320" y="180" as="sourcePoint" />
            <mxPoint x="620" y="180" as="targetPoint" />
          </mxGeometry>
        </mxCell>
        <mxCell id="APXlqNI634iQu10qJnpK-47" value="F_10" style="edgeLabel;html=1;align=center;verticalAlign=middle;resizable=0;points=[];fontSize=15;fontStyle=1" vertex="1" connectable="0" parent="APXlqNI634iQu10qJnpK-46">
          <mxGeometry x="0.0541" y="2" relative="1" as="geometry">
            <mxPoint as="offset" />
          </mxGeometry>
        </mxCell>
        <mxCell id="APXlqNI634iQu10qJnpK-48" value="" style="endArrow=none;html=1;rounded=0;fontSize=15;strokeWidth=2;" edge="1" parent="1">
          <mxGeometry width="50" height="50" relative="1" as="geometry">
            <mxPoint x="320" y="270" as="sourcePoint" />
            <mxPoint x="620" y="270" as="targetPoint" />
          </mxGeometry>
        </mxCell>
        <mxCell id="APXlqNI634iQu10qJnpK-49" value="F_10" style="edgeLabel;html=1;align=center;verticalAlign=middle;resizable=0;points=[];fontSize=15;fontStyle=1" vertex="1" connectable="0" parent="APXlqNI634iQu10qJnpK-48">
          <mxGeometry x="0.0541" y="2" relative="1" as="geometry">
            <mxPoint as="offset" />
          </mxGeometry>
        </mxCell>
        <mxCell id="APXlqNI634iQu10qJnpK-50" value="" style="endArrow=none;html=1;rounded=0;fontSize=15;strokeWidth=2;" edge="1" parent="1">
          <mxGeometry width="50" height="50" relative="1" as="geometry">
            <mxPoint x="320" y="420" as="sourcePoint" />
            <mxPoint x="620" y="420" as="targetPoint" />
          </mxGeometry>
        </mxCell>
        <mxCell id="APXlqNI634iQu10qJnpK-51" value="F_10" style="edgeLabel;html=1;align=center;verticalAlign=middle;resizable=0;points=[];fontSize=15;fontStyle=1" vertex="1" connectable="0" parent="APXlqNI634iQu10qJnpK-50">
          <mxGeometry x="0.0541" y="2" relative="1" as="geometry">
            <mxPoint as="offset" />
          </mxGeometry>
        </mxCell>
        <mxCell id="APXlqNI634iQu10qJnpK-52" value="" style="endArrow=none;html=1;rounded=0;fontSize=15;strokeWidth=2;" edge="1" parent="1">
          <mxGeometry width="50" height="50" relative="1" as="geometry">
            <mxPoint x="320" y="460" as="sourcePoint" />
            <mxPoint x="620" y="460" as="targetPoint" />
          </mxGeometry>
        </mxCell>
        <mxCell id="APXlqNI634iQu10qJnpK-53" value="F_10" style="edgeLabel;html=1;align=center;verticalAlign=middle;resizable=0;points=[];fontSize=15;fontStyle=1" vertex="1" connectable="0" parent="APXlqNI634iQu10qJnpK-52">
          <mxGeometry x="0.0541" y="2" relative="1" as="geometry">
            <mxPoint as="offset" />
          </mxGeometry>
        </mxCell>
        <mxCell id="APXlqNI634iQu10qJnpK-54" value="" style="endArrow=none;html=1;rounded=0;" edge="1" parent="1">
          <mxGeometry width="50" height="50" relative="1" as="geometry">
            <mxPoint x="620" y="420" as="sourcePoint" />
            <mxPoint x="1090" y="420" as="targetPoint" />
          </mxGeometry>
        </mxCell>
        <mxCell id="APXlqNI634iQu10qJnpK-55" value="F_14" style="edgeLabel;html=1;align=center;verticalAlign=middle;resizable=0;points=[];fontSize=15;" vertex="1" connectable="0" parent="APXlqNI634iQu10qJnpK-54">
          <mxGeometry x="0.9745" y="1" relative="1" as="geometry">
            <mxPoint x="16" as="offset" />
          </mxGeometry>
        </mxCell>
        <mxCell id="APXlqNI634iQu10qJnpK-57" value="" style="endArrow=none;html=1;rounded=0;" edge="1" parent="1">
          <mxGeometry width="50" height="50" relative="1" as="geometry">
            <mxPoint x="620" y="460" as="sourcePoint" />
            <mxPoint x="1090" y="460" as="targetPoint" />
          </mxGeometry>
        </mxCell>
        <mxCell id="APXlqNI634iQu10qJnpK-58" value="F_15" style="edgeLabel;html=1;align=center;verticalAlign=middle;resizable=0;points=[];fontSize=15;" vertex="1" connectable="0" parent="APXlqNI634iQu10qJnpK-57">
          <mxGeometry x="0.9745" y="1" relative="1" as="geometry">
            <mxPoint x="16" as="offset" />
          </mxGeometry>
        </mxCell>
        <mxCell id="APXlqNI634iQu10qJnpK-62" value="" style="endArrow=none;html=1;rounded=0;" edge="1" parent="1">
          <mxGeometry width="50" height="50" relative="1" as="geometry">
            <mxPoint x="50" y="690" as="sourcePoint" />
            <mxPoint x="220" y="690" as="targetPoint" />
          </mxGeometry>
        </mxCell>
        <mxCell id="APXlqNI634iQu10qJnpK-64" value="I_3" style="edgeLabel;html=1;align=center;verticalAlign=middle;resizable=0;points=[];fontSize=15;" vertex="1" connectable="0" parent="APXlqNI634iQu10qJnpK-62">
          <mxGeometry x="-0.8891" y="2" relative="1" as="geometry">
            <mxPoint x="20" y="2" as="offset" />
          </mxGeometry>
        </mxCell>
        <mxCell id="APXlqNI634iQu10qJnpK-65" value="F_3" style="edgeLabel;html=1;align=center;verticalAlign=middle;resizable=0;points=[];fontSize=15;" vertex="1" connectable="0" parent="APXlqNI634iQu10qJnpK-62">
          <mxGeometry x="-0.7635" y="-1" relative="1" as="geometry">
            <mxPoint x="110" y="-1" as="offset" />
          </mxGeometry>
        </mxCell>
        <mxCell id="APXlqNI634iQu10qJnpK-66" value="" style="endArrow=none;html=1;rounded=0;" edge="1" parent="1">
          <mxGeometry width="50" height="50" relative="1" as="geometry">
            <mxPoint x="120" y="790" as="sourcePoint" />
            <mxPoint x="1110" y="790" as="targetPoint" />
          </mxGeometry>
        </mxCell>
        <mxCell id="APXlqNI634iQu10qJnpK-67" value="F_4" style="edgeLabel;html=1;align=center;verticalAlign=middle;resizable=0;points=[];fontSize=15;" vertex="1" connectable="0" parent="APXlqNI634iQu10qJnpK-66">
          <mxGeometry x="0.9745" y="1" relative="1" as="geometry">
            <mxPoint x="4" as="offset" />
          </mxGeometry>
        </mxCell>
        <mxCell id="APXlqNI634iQu10qJnpK-70" value="" style="endArrow=none;html=1;rounded=0;fontSize=15;strokeWidth=1;" edge="1" parent="1">
          <mxGeometry width="50" height="50" relative="1" as="geometry">
            <mxPoint x="50" y="770" as="sourcePoint" />
            <mxPoint x="120" y="770" as="targetPoint" />
          </mxGeometry>
        </mxCell>
        <mxCell id="APXlqNI634iQu10qJnpK-71" value="I_4" style="edgeLabel;html=1;align=center;verticalAlign=middle;resizable=0;points=[];fontSize=15;" vertex="1" connectable="0" parent="APXlqNI634iQu10qJnpK-70">
          <mxGeometry x="-0.2463" relative="1" as="geometry">
            <mxPoint x="3" y="2" as="offset" />
          </mxGeometry>
        </mxCell>
        <mxCell id="APXlqNI634iQu10qJnpK-72" value="" style="endArrow=none;html=1;rounded=0;fontSize=15;strokeWidth=1;" edge="1" parent="1">
          <mxGeometry width="50" height="50" relative="1" as="geometry">
            <mxPoint x="50" y="810" as="sourcePoint" />
            <mxPoint x="120" y="810" as="targetPoint" />
          </mxGeometry>
        </mxCell>
        <mxCell id="APXlqNI634iQu10qJnpK-73" value="I_6" style="edgeLabel;html=1;align=center;verticalAlign=middle;resizable=0;points=[];fontSize=15;" vertex="1" connectable="0" parent="APXlqNI634iQu10qJnpK-72">
          <mxGeometry x="-0.2463" relative="1" as="geometry">
            <mxPoint x="3" y="2" as="offset" />
          </mxGeometry>
        </mxCell>
        <mxCell id="APXlqNI634iQu10qJnpK-74" value="" style="endArrow=none;html=1;rounded=0;fontSize=15;strokeWidth=2;" edge="1" parent="1">
          <mxGeometry width="50" height="50" relative="1" as="geometry">
            <mxPoint x="120" y="810" as="sourcePoint" />
            <mxPoint x="120" y="770" as="targetPoint" />
          </mxGeometry>
        </mxCell>
        <mxCell id="APXlqNI634iQu10qJnpK-80" value="" style="endArrow=none;html=1;rounded=0;" edge="1" parent="1">
          <mxGeometry width="50" height="50" relative="1" as="geometry">
            <mxPoint x="120" y="859.9999999999998" as="sourcePoint" />
            <mxPoint x="1110" y="859.9999999999998" as="targetPoint" />
          </mxGeometry>
        </mxCell>
        <mxCell id="APXlqNI634iQu10qJnpK-81" value="F_7" style="edgeLabel;html=1;align=center;verticalAlign=middle;resizable=0;points=[];fontSize=15;" vertex="1" connectable="0" parent="APXlqNI634iQu10qJnpK-80">
          <mxGeometry x="0.9745" y="1" relative="1" as="geometry">
            <mxPoint x="4" as="offset" />
          </mxGeometry>
        </mxCell>
        <mxCell id="APXlqNI634iQu10qJnpK-82" value="" style="endArrow=none;html=1;rounded=0;fontSize=15;strokeWidth=1;" edge="1" parent="1">
          <mxGeometry width="50" height="50" relative="1" as="geometry">
            <mxPoint x="50" y="839.9999999999998" as="sourcePoint" />
            <mxPoint x="120" y="839.9999999999998" as="targetPoint" />
          </mxGeometry>
        </mxCell>
        <mxCell id="APXlqNI634iQu10qJnpK-83" value="I_3" style="edgeLabel;html=1;align=center;verticalAlign=middle;resizable=0;points=[];fontSize=15;" vertex="1" connectable="0" parent="APXlqNI634iQu10qJnpK-82">
          <mxGeometry x="-0.2463" relative="1" as="geometry">
            <mxPoint x="3" y="2" as="offset" />
          </mxGeometry>
        </mxCell>
        <mxCell id="APXlqNI634iQu10qJnpK-84" value="" style="endArrow=none;html=1;rounded=0;fontSize=15;strokeWidth=1;" edge="1" parent="1">
          <mxGeometry width="50" height="50" relative="1" as="geometry">
            <mxPoint x="50" y="879.9999999999998" as="sourcePoint" />
            <mxPoint x="120" y="879.9999999999998" as="targetPoint" />
          </mxGeometry>
        </mxCell>
        <mxCell id="APXlqNI634iQu10qJnpK-85" value="I_6" style="edgeLabel;html=1;align=center;verticalAlign=middle;resizable=0;points=[];fontSize=15;" vertex="1" connectable="0" parent="APXlqNI634iQu10qJnpK-84">
          <mxGeometry x="-0.2463" relative="1" as="geometry">
            <mxPoint x="3" y="2" as="offset" />
          </mxGeometry>
        </mxCell>
        <mxCell id="APXlqNI634iQu10qJnpK-86" value="" style="endArrow=none;html=1;rounded=0;fontSize=15;strokeWidth=2;" edge="1" parent="1">
          <mxGeometry width="50" height="50" relative="1" as="geometry">
            <mxPoint x="120" y="879.9999999999998" as="sourcePoint" />
            <mxPoint x="120" y="839.9999999999998" as="targetPoint" />
          </mxGeometry>
        </mxCell>
        <mxCell id="APXlqNI634iQu10qJnpK-87" value="" style="endArrow=none;html=1;rounded=0;fontSize=15;strokeWidth=1;" edge="1" parent="1">
          <mxGeometry width="50" height="50" relative="1" as="geometry">
            <mxPoint x="50" y="730" as="sourcePoint" />
            <mxPoint x="220" y="730" as="targetPoint" />
          </mxGeometry>
        </mxCell>
        <mxCell id="APXlqNI634iQu10qJnpK-88" value="I_6" style="edgeLabel;html=1;align=center;verticalAlign=middle;resizable=0;points=[];fontSize=15;" vertex="1" connectable="0" parent="APXlqNI634iQu10qJnpK-87">
          <mxGeometry x="-0.2463" relative="1" as="geometry">
            <mxPoint x="-34" as="offset" />
          </mxGeometry>
        </mxCell>
        <mxCell id="APXlqNI634iQu10qJnpK-90" value="" style="endArrow=none;html=1;rounded=0;fontSize=15;strokeWidth=2;" edge="1" parent="1">
          <mxGeometry width="50" height="50" relative="1" as="geometry">
            <mxPoint x="220" y="730" as="sourcePoint" />
            <mxPoint x="220" y="690" as="targetPoint" />
          </mxGeometry>
        </mxCell>
        <mxCell id="APXlqNI634iQu10qJnpK-91" value="" style="endArrow=none;html=1;rounded=0;fontSize=15;strokeWidth=1;" edge="1" parent="1">
          <mxGeometry width="50" height="50" relative="1" as="geometry">
            <mxPoint x="220" y="710" as="sourcePoint" />
            <mxPoint x="310" y="710" as="targetPoint" />
          </mxGeometry>
        </mxCell>
        <mxCell id="APXlqNI634iQu10qJnpK-94" value="F_11" style="edgeLabel;html=1;align=center;verticalAlign=middle;resizable=0;points=[];fontSize=15;" vertex="1" connectable="0" parent="APXlqNI634iQu10qJnpK-91">
          <mxGeometry x="-0.82" y="1" relative="1" as="geometry">
            <mxPoint x="71" as="offset" />
          </mxGeometry>
        </mxCell>
        <mxCell id="APXlqNI634iQu10qJnpK-95" value="" style="endArrow=none;html=1;rounded=0;fontSize=15;strokeWidth=2;" edge="1" parent="1">
          <mxGeometry width="50" height="50" relative="1" as="geometry">
            <mxPoint x="320" y="730" as="sourcePoint" />
            <mxPoint x="320" y="690" as="targetPoint" />
          </mxGeometry>
        </mxCell>
        <mxCell id="APXlqNI634iQu10qJnpK-96" value="" style="endArrow=none;html=1;rounded=0;fontSize=15;strokeWidth=1;" edge="1" parent="1">
          <mxGeometry width="50" height="50" relative="1" as="geometry">
            <mxPoint x="620" y="690" as="sourcePoint" />
            <mxPoint x="1110" y="690" as="targetPoint" />
          </mxGeometry>
        </mxCell>
        <mxCell id="APXlqNI634iQu10qJnpK-97" value="F_16" style="edgeLabel;html=1;align=center;verticalAlign=middle;resizable=0;points=[];fontSize=15;" vertex="1" connectable="0" parent="APXlqNI634iQu10qJnpK-96">
          <mxGeometry x="0.9715" y="-1" relative="1" as="geometry">
            <mxPoint x="-3" as="offset" />
          </mxGeometry>
        </mxCell>
        <mxCell id="APXlqNI634iQu10qJnpK-98" value="" style="endArrow=none;html=1;rounded=0;fontSize=15;strokeWidth=1;" edge="1" parent="1">
          <mxGeometry width="50" height="50" relative="1" as="geometry">
            <mxPoint x="620" y="730" as="sourcePoint" />
            <mxPoint x="1110" y="730" as="targetPoint" />
          </mxGeometry>
        </mxCell>
        <mxCell id="APXlqNI634iQu10qJnpK-99" value="F_17" style="edgeLabel;html=1;align=center;verticalAlign=middle;resizable=0;points=[];fontSize=15;" vertex="1" connectable="0" parent="APXlqNI634iQu10qJnpK-98">
          <mxGeometry x="0.9715" y="-1" relative="1" as="geometry">
            <mxPoint x="-3" as="offset" />
          </mxGeometry>
        </mxCell>
        <mxCell id="APXlqNI634iQu10qJnpK-100" value="" style="endArrow=none;html=1;rounded=0;fontSize=15;strokeWidth=2;" edge="1" parent="1">
          <mxGeometry width="50" height="50" relative="1" as="geometry">
            <mxPoint x="320" y="690" as="sourcePoint" />
            <mxPoint x="620" y="690" as="targetPoint" />
          </mxGeometry>
        </mxCell>
        <mxCell id="APXlqNI634iQu10qJnpK-101" value="F_11" style="edgeLabel;html=1;align=center;verticalAlign=middle;resizable=0;points=[];fontSize=15;fontStyle=1" vertex="1" connectable="0" parent="APXlqNI634iQu10qJnpK-100">
          <mxGeometry x="0.0541" y="2" relative="1" as="geometry">
            <mxPoint as="offset" />
          </mxGeometry>
        </mxCell>
        <mxCell id="APXlqNI634iQu10qJnpK-102" value="" style="endArrow=none;html=1;rounded=0;fontSize=15;strokeWidth=2;" edge="1" parent="1">
          <mxGeometry width="50" height="50" relative="1" as="geometry">
            <mxPoint x="320" y="730" as="sourcePoint" />
            <mxPoint x="620" y="730" as="targetPoint" />
          </mxGeometry>
        </mxCell>
        <mxCell id="APXlqNI634iQu10qJnpK-103" value="F_11" style="edgeLabel;html=1;align=center;verticalAlign=middle;resizable=0;points=[];fontSize=15;fontStyle=1" vertex="1" connectable="0" parent="APXlqNI634iQu10qJnpK-102">
          <mxGeometry x="0.0541" y="2" relative="1" as="geometry">
            <mxPoint as="offset" />
          </mxGeometry>
        </mxCell>
        <mxCell id="APXlqNI634iQu10qJnpK-104" value="" style="endArrow=none;html=1;rounded=0;" edge="1" parent="1">
          <mxGeometry width="50" height="50" relative="1" as="geometry">
            <mxPoint x="50" y="1012" as="sourcePoint" />
            <mxPoint x="300" y="1012" as="targetPoint" />
          </mxGeometry>
        </mxCell>
        <mxCell id="APXlqNI634iQu10qJnpK-105" value="F_9" style="edgeLabel;html=1;align=center;verticalAlign=middle;resizable=0;points=[];fontSize=15;" vertex="1" connectable="0" parent="APXlqNI634iQu10qJnpK-104">
          <mxGeometry x="0.9745" y="1" relative="1" as="geometry">
            <mxPoint as="offset" />
          </mxGeometry>
        </mxCell>
        <mxCell id="APXlqNI634iQu10qJnpK-106" value="I_4" style="edgeLabel;html=1;align=center;verticalAlign=middle;resizable=0;points=[];fontSize=15;" vertex="1" connectable="0" parent="APXlqNI634iQu10qJnpK-104">
          <mxGeometry x="-0.8891" y="2" relative="1" as="geometry">
            <mxPoint x="16" as="offset" />
          </mxGeometry>
        </mxCell>
        <mxCell id="APXlqNI634iQu10qJnpK-107" value="F_1" style="edgeLabel;html=1;align=center;verticalAlign=middle;resizable=0;points=[];fontSize=15;" vertex="1" connectable="0" parent="APXlqNI634iQu10qJnpK-104">
          <mxGeometry x="0.0339" relative="1" as="geometry">
            <mxPoint as="offset" />
          </mxGeometry>
        </mxCell>
        <mxCell id="APXlqNI634iQu10qJnpK-109" value="" style="endArrow=none;html=1;rounded=0;fontSize=15;strokeWidth=2;" edge="1" parent="1">
          <mxGeometry width="50" height="50" relative="1" as="geometry">
            <mxPoint x="320" y="1042" as="sourcePoint" />
            <mxPoint x="320" y="982" as="targetPoint" />
          </mxGeometry>
        </mxCell>
        <mxCell id="APXlqNI634iQu10qJnpK-110" value="" style="endArrow=none;html=1;rounded=0;fontSize=15;strokeWidth=2;" edge="1" parent="1">
          <mxGeometry width="50" height="50" relative="1" as="geometry">
            <mxPoint x="320" y="981.9999999999998" as="sourcePoint" />
            <mxPoint x="620" y="981.9999999999998" as="targetPoint" />
          </mxGeometry>
        </mxCell>
        <mxCell id="APXlqNI634iQu10qJnpK-111" value="F_9" style="edgeLabel;html=1;align=center;verticalAlign=middle;resizable=0;points=[];fontSize=15;fontStyle=1" vertex="1" connectable="0" parent="APXlqNI634iQu10qJnpK-110">
          <mxGeometry x="0.0541" y="2" relative="1" as="geometry">
            <mxPoint as="offset" />
          </mxGeometry>
        </mxCell>
        <mxCell id="APXlqNI634iQu10qJnpK-112" value="" style="endArrow=none;html=1;rounded=0;fontSize=15;strokeWidth=2;" edge="1" parent="1">
          <mxGeometry width="50" height="50" relative="1" as="geometry">
            <mxPoint x="320" y="1041.9999999999998" as="sourcePoint" />
            <mxPoint x="620" y="1041.9999999999998" as="targetPoint" />
          </mxGeometry>
        </mxCell>
        <mxCell id="APXlqNI634iQu10qJnpK-113" value="F_9" style="edgeLabel;html=1;align=center;verticalAlign=middle;resizable=0;points=[];fontSize=15;fontStyle=1" vertex="1" connectable="0" parent="APXlqNI634iQu10qJnpK-112">
          <mxGeometry x="0.0541" y="2" relative="1" as="geometry">
            <mxPoint as="offset" />
          </mxGeometry>
        </mxCell>
        <mxCell id="APXlqNI634iQu10qJnpK-114" value="" style="endArrow=none;html=1;rounded=0;fontSize=15;strokeWidth=1;" edge="1" parent="1">
          <mxGeometry width="50" height="50" relative="1" as="geometry">
            <mxPoint x="620" y="981.9999999999998" as="sourcePoint" />
            <mxPoint x="1110" y="981.9999999999998" as="targetPoint" />
          </mxGeometry>
        </mxCell>
        <mxCell id="APXlqNI634iQu10qJnpK-115" value="F_12" style="edgeLabel;html=1;align=center;verticalAlign=middle;resizable=0;points=[];fontSize=15;" vertex="1" connectable="0" parent="APXlqNI634iQu10qJnpK-114">
          <mxGeometry x="0.9715" y="-1" relative="1" as="geometry">
            <mxPoint x="-3" as="offset" />
          </mxGeometry>
        </mxCell>
        <mxCell id="APXlqNI634iQu10qJnpK-116" value="" style="endArrow=none;html=1;rounded=0;fontSize=15;strokeWidth=1;" edge="1" parent="1">
          <mxGeometry width="50" height="50" relative="1" as="geometry">
            <mxPoint x="620" y="1041.9999999999998" as="sourcePoint" />
            <mxPoint x="1110" y="1041.9999999999998" as="targetPoint" />
          </mxGeometry>
        </mxCell>
        <mxCell id="APXlqNI634iQu10qJnpK-117" value="F_13" style="edgeLabel;html=1;align=center;verticalAlign=middle;resizable=0;points=[];fontSize=15;" vertex="1" connectable="0" parent="APXlqNI634iQu10qJnpK-116">
          <mxGeometry x="0.9715" y="-1" relative="1" as="geometry">
            <mxPoint x="-3" as="offset" />
          </mxGeometry>
        </mxCell>
        <mxCell id="APXlqNI634iQu10qJnpK-122" value="" style="endArrow=none;html=1;rounded=0;" edge="1" parent="1">
          <mxGeometry width="50" height="50" relative="1" as="geometry">
            <mxPoint x="50" y="1180" as="sourcePoint" />
            <mxPoint x="1100" y="1180" as="targetPoint" />
            <Array as="points" />
          </mxGeometry>
        </mxCell>
        <mxCell id="APXlqNI634iQu10qJnpK-123" value="F_6" style="edgeLabel;html=1;align=center;verticalAlign=middle;resizable=0;points=[];fontSize=15;" vertex="1" connectable="0" parent="APXlqNI634iQu10qJnpK-122">
          <mxGeometry x="0.9745" y="1" relative="1" as="geometry">
            <mxPoint x="13" as="offset" />
          </mxGeometry>
        </mxCell>
        <mxCell id="APXlqNI634iQu10qJnpK-124" value="I_2" style="edgeLabel;html=1;align=center;verticalAlign=middle;resizable=0;points=[];fontSize=15;" vertex="1" connectable="0" parent="APXlqNI634iQu10qJnpK-122">
          <mxGeometry x="-0.8826" relative="1" as="geometry">
            <mxPoint x="-32" as="offset" />
          </mxGeometry>
        </mxCell>
        <mxCell id="APXlqNI634iQu10qJnpK-125" value="" style="endArrow=none;html=1;rounded=0;" edge="1" parent="1">
          <mxGeometry width="50" height="50" relative="1" as="geometry">
            <mxPoint x="50" y="1220" as="sourcePoint" />
            <mxPoint x="1100" y="1220" as="targetPoint" />
            <Array as="points" />
          </mxGeometry>
        </mxCell>
        <mxCell id="APXlqNI634iQu10qJnpK-126" value="F_8" style="edgeLabel;html=1;align=center;verticalAlign=middle;resizable=0;points=[];fontSize=15;" vertex="1" connectable="0" parent="APXlqNI634iQu10qJnpK-125">
          <mxGeometry x="0.9745" y="1" relative="1" as="geometry">
            <mxPoint x="13" as="offset" />
          </mxGeometry>
        </mxCell>
        <mxCell id="APXlqNI634iQu10qJnpK-127" value="I_2" style="edgeLabel;html=1;align=center;verticalAlign=middle;resizable=0;points=[];fontSize=15;" vertex="1" connectable="0" parent="APXlqNI634iQu10qJnpK-125">
          <mxGeometry x="-0.8826" relative="1" as="geometry">
            <mxPoint x="-32" as="offset" />
          </mxGeometry>
        </mxCell>
        <mxCell id="APXlqNI634iQu10qJnpK-128" value="" style="endArrow=none;html=1;rounded=0;fontSize=15;strokeWidth=2;fontStyle=0" edge="1" parent="1">
          <mxGeometry width="50" height="50" relative="1" as="geometry">
            <mxPoint x="1120" y="75" as="sourcePoint" />
            <mxPoint x="1160" y="1160" as="targetPoint" />
            <Array as="points">
              <mxPoint x="1160" y="75" />
            </Array>
          </mxGeometry>
        </mxCell>
        <mxCell id="APXlqNI634iQu10qJnpK-129" value="" style="group;fontStyle=1" vertex="1" connectable="0" parent="1">
          <mxGeometry x="1340" y="90" width="270" height="200" as="geometry" />
        </mxCell>
        <mxCell id="APXlqNI634iQu10qJnpK-130" value="" style="group;fontStyle=1" vertex="1" connectable="0" parent="APXlqNI634iQu10qJnpK-129">
          <mxGeometry width="270" height="200" as="geometry" />
        </mxCell>
        <mxCell id="APXlqNI634iQu10qJnpK-131" value="" style="rounded=0;whiteSpace=wrap;html=1;" vertex="1" parent="APXlqNI634iQu10qJnpK-130">
          <mxGeometry width="270" height="200" as="geometry" />
        </mxCell>
        <mxCell id="APXlqNI634iQu10qJnpK-132" value="&lt;b&gt;MK_01 - Montaż fasady&lt;/b&gt;" style="text;html=1;strokeColor=none;fillColor=none;align=center;verticalAlign=middle;whiteSpace=wrap;rounded=0;rotation=0;container=1;" vertex="1" parent="APXlqNI634iQu10qJnpK-130">
          <mxGeometry x="63.94799999999999" y="-20" width="142.10399999999998" height="63.157894736842096" as="geometry">
            <mxRectangle x="132.63288888888889" width="160" height="10" as="alternateBounds" />
          </mxGeometry>
        </mxCell>
        <mxCell id="APXlqNI634iQu10qJnpK-144" value="" style="group;fontStyle=1" vertex="1" connectable="0" parent="1">
          <mxGeometry x="1340" y="590" width="270" height="260" as="geometry" />
        </mxCell>
        <mxCell id="APXlqNI634iQu10qJnpK-145" value="" style="group;fontStyle=1" vertex="1" connectable="0" parent="APXlqNI634iQu10qJnpK-144">
          <mxGeometry width="270" height="260" as="geometry" />
        </mxCell>
        <mxCell id="APXlqNI634iQu10qJnpK-146" value="" style="rounded=0;whiteSpace=wrap;html=1;" vertex="1" parent="APXlqNI634iQu10qJnpK-145">
          <mxGeometry width="270" height="260" as="geometry" />
        </mxCell>
        <mxCell id="APXlqNI634iQu10qJnpK-147" value="&lt;b&gt;MK_02 - Montaż okna drewnianego&lt;/b&gt;" style="text;html=1;strokeColor=none;fillColor=none;align=center;verticalAlign=middle;whiteSpace=wrap;rounded=0;rotation=0;container=1;" vertex="1" parent="APXlqNI634iQu10qJnpK-145">
          <mxGeometry x="63.948" y="-10" width="142.10400000000004" height="82.10526315789473" as="geometry">
            <mxRectangle x="132.63288888888889" width="160" height="10" as="alternateBounds" />
          </mxGeometry>
        </mxCell>
        <mxCell id="APXlqNI634iQu10qJnpK-148" value="" style="group;fontStyle=1" vertex="1" connectable="0" parent="1">
          <mxGeometry x="1340" y="310" width="270" height="260" as="geometry" />
        </mxCell>
        <mxCell id="APXlqNI634iQu10qJnpK-149" value="" style="group;fontStyle=1" vertex="1" connectable="0" parent="APXlqNI634iQu10qJnpK-148">
          <mxGeometry width="270" height="260" as="geometry" />
        </mxCell>
        <mxCell id="APXlqNI634iQu10qJnpK-150" value="" style="rounded=0;whiteSpace=wrap;html=1;" vertex="1" parent="APXlqNI634iQu10qJnpK-149">
          <mxGeometry width="270" height="260" as="geometry" />
        </mxCell>
        <mxCell id="APXlqNI634iQu10qJnpK-151" value="&lt;b&gt;MK_04 - Montaż okna aluminiowego&lt;/b&gt;" style="text;html=1;strokeColor=none;fillColor=none;align=center;verticalAlign=middle;whiteSpace=wrap;rounded=0;rotation=0;container=1;" vertex="1" parent="APXlqNI634iQu10qJnpK-149">
          <mxGeometry x="63.948" width="142.10400000000004" height="82.10526315789473" as="geometry">
            <mxRectangle x="132.63288888888889" width="160" height="10" as="alternateBounds" />
          </mxGeometry>
        </mxCell>
        <mxCell id="APXlqNI634iQu10qJnpK-152" value="" style="group;fontStyle=1" vertex="1" connectable="0" parent="1">
          <mxGeometry x="1340" y="870" width="270" height="300" as="geometry" />
        </mxCell>
        <mxCell id="APXlqNI634iQu10qJnpK-153" value="" style="group;fontStyle=1" vertex="1" connectable="0" parent="APXlqNI634iQu10qJnpK-152">
          <mxGeometry width="270" height="300" as="geometry" />
        </mxCell>
        <mxCell id="APXlqNI634iQu10qJnpK-154" value="" style="rounded=0;whiteSpace=wrap;html=1;" vertex="1" parent="APXlqNI634iQu10qJnpK-153">
          <mxGeometry width="270" height="300" as="geometry" />
        </mxCell>
        <mxCell id="APXlqNI634iQu10qJnpK-155" value="&lt;b&gt;MK_03 - Montaż okna PVC&lt;/b&gt;" style="text;html=1;strokeColor=none;fillColor=none;align=center;verticalAlign=middle;whiteSpace=wrap;rounded=0;rotation=0;container=1;" vertex="1" parent="APXlqNI634iQu10qJnpK-153">
          <mxGeometry x="63.948" y="-10" width="142.10400000000004" height="94.73684210526314" as="geometry">
            <mxRectangle x="132.63288888888889" width="160" height="10" as="alternateBounds" />
          </mxGeometry>
        </mxCell>
        <mxCell id="APXlqNI634iQu10qJnpK-156" value="" style="group;fontStyle=1" vertex="1" connectable="0" parent="1">
          <mxGeometry x="1870" y="90" width="170" height="1010" as="geometry" />
        </mxCell>
        <mxCell id="APXlqNI634iQu10qJnpK-157" value="" style="group;fontStyle=1" vertex="1" connectable="0" parent="APXlqNI634iQu10qJnpK-156">
          <mxGeometry width="170" height="1010" as="geometry" />
        </mxCell>
        <mxCell id="APXlqNI634iQu10qJnpK-158" value="" style="rounded=0;whiteSpace=wrap;html=1;" vertex="1" parent="APXlqNI634iQu10qJnpK-157">
          <mxGeometry width="170" height="1010" as="geometry" />
        </mxCell>
        <mxCell id="APXlqNI634iQu10qJnpK-159" value="&lt;b&gt;MK_05 - Pakowanie produktów finalnych&lt;/b&gt;" style="text;html=1;strokeColor=none;fillColor=none;align=center;verticalAlign=middle;whiteSpace=wrap;rounded=0;rotation=0;container=1;" vertex="1" parent="APXlqNI634iQu10qJnpK-157">
          <mxGeometry x="40.263555555555556" width="89.4728888888889" height="318.9473684210526" as="geometry">
            <mxRectangle x="132.63288888888889" width="160" height="10" as="alternateBounds" />
          </mxGeometry>
        </mxCell>
        <mxCell id="APXlqNI634iQu10qJnpK-160" value="" style="endArrow=none;html=1;rounded=0;fontSize=15;strokeWidth=1;" edge="1" parent="1">
          <mxGeometry width="50" height="50" relative="1" as="geometry">
            <mxPoint x="1120" y="150" as="sourcePoint" />
            <mxPoint x="1360" y="150" as="targetPoint" />
          </mxGeometry>
        </mxCell>
        <mxCell id="APXlqNI634iQu10qJnpK-161" value="" style="endArrow=none;html=1;rounded=0;fontSize=15;strokeWidth=1;" edge="1" parent="1">
          <mxGeometry width="50" height="50" relative="1" as="geometry">
            <mxPoint x="1120" y="210" as="sourcePoint" />
            <mxPoint x="1360" y="210" as="targetPoint" />
          </mxGeometry>
        </mxCell>
        <mxCell id="APXlqNI634iQu10qJnpK-162" value="" style="endArrow=none;html=1;rounded=0;fontSize=15;strokeWidth=1;" edge="1" parent="1">
          <mxGeometry width="50" height="50" relative="1" as="geometry">
            <mxPoint x="1120" y="240" as="sourcePoint" />
            <mxPoint x="1360" y="240" as="targetPoint" />
          </mxGeometry>
        </mxCell>
        <mxCell id="APXlqNI634iQu10qJnpK-163" value="" style="endArrow=none;html=1;rounded=0;fontSize=15;strokeWidth=2;" edge="1" parent="1">
          <mxGeometry width="50" height="50" relative="1" as="geometry">
            <mxPoint x="1360" y="240" as="sourcePoint" />
            <mxPoint x="1360" y="150" as="targetPoint" />
          </mxGeometry>
        </mxCell>
        <mxCell id="APXlqNI634iQu10qJnpK-164" value="" style="endArrow=none;html=1;rounded=0;fontSize=15;strokeWidth=1;" edge="1" parent="1">
          <mxGeometry width="50" height="50" relative="1" as="geometry">
            <mxPoint x="1360" y="190" as="sourcePoint" />
            <mxPoint x="1440" y="190" as="targetPoint" />
          </mxGeometry>
        </mxCell>
        <mxCell id="APXlqNI634iQu10qJnpK-165" value="M_7" style="edgeLabel;html=1;align=center;verticalAlign=middle;resizable=0;points=[];fontSize=15;" vertex="1" connectable="0" parent="APXlqNI634iQu10qJnpK-164">
          <mxGeometry x="-0.3748" y="-1" relative="1" as="geometry">
            <mxPoint x="15" as="offset" />
          </mxGeometry>
        </mxCell>
        <mxCell id="APXlqNI634iQu10qJnpK-168" value="" style="endArrow=none;html=1;rounded=0;fontSize=15;strokeWidth=1;" edge="1" parent="1">
          <mxGeometry width="50" height="50" relative="1" as="geometry">
            <mxPoint x="1160" y="120" as="sourcePoint" />
            <mxPoint x="1440" y="120" as="targetPoint" />
          </mxGeometry>
        </mxCell>
        <mxCell id="APXlqNI634iQu10qJnpK-170" value="S_6" style="edgeLabel;html=1;align=center;verticalAlign=middle;resizable=0;points=[];fontSize=15;" vertex="1" connectable="0" parent="APXlqNI634iQu10qJnpK-168">
          <mxGeometry x="0.1251" y="2" relative="1" as="geometry">
            <mxPoint x="83" y="2" as="offset" />
          </mxGeometry>
        </mxCell>
        <mxCell id="APXlqNI634iQu10qJnpK-169" value="" style="endArrow=none;html=1;rounded=0;fontSize=15;strokeWidth=2;" edge="1" parent="1">
          <mxGeometry width="50" height="50" relative="1" as="geometry">
            <mxPoint x="1440" y="190" as="sourcePoint" />
            <mxPoint x="1440" y="120" as="targetPoint" />
          </mxGeometry>
        </mxCell>
        <mxCell id="APXlqNI634iQu10qJnpK-171" value="" style="endArrow=none;html=1;rounded=0;fontSize=15;strokeWidth=1;" edge="1" parent="1">
          <mxGeometry width="50" height="50" relative="1" as="geometry">
            <mxPoint x="1440" y="150" as="sourcePoint" />
            <mxPoint x="1520" y="150" as="targetPoint" />
          </mxGeometry>
        </mxCell>
        <mxCell id="APXlqNI634iQu10qJnpK-172" value="M_8" style="edgeLabel;html=1;align=center;verticalAlign=middle;resizable=0;points=[];fontSize=15;" vertex="1" connectable="0" parent="APXlqNI634iQu10qJnpK-171">
          <mxGeometry x="-0.3748" y="-1" relative="1" as="geometry">
            <mxPoint x="5" y="-1" as="offset" />
          </mxGeometry>
        </mxCell>
        <mxCell id="APXlqNI634iQu10qJnpK-173" value="" style="endArrow=none;html=1;rounded=0;fontSize=15;strokeWidth=1;" edge="1" parent="1">
          <mxGeometry width="50" height="50" relative="1" as="geometry">
            <mxPoint x="1120" y="270" as="sourcePoint" />
            <mxPoint x="1520" y="270" as="targetPoint" />
          </mxGeometry>
        </mxCell>
        <mxCell id="APXlqNI634iQu10qJnpK-175" value="F_23" style="edgeLabel;html=1;align=center;verticalAlign=middle;resizable=0;points=[];fontSize=15;" vertex="1" connectable="0" parent="APXlqNI634iQu10qJnpK-173">
          <mxGeometry x="0.5209" y="1" relative="1" as="geometry">
            <mxPoint x="46" as="offset" />
          </mxGeometry>
        </mxCell>
        <mxCell id="APXlqNI634iQu10qJnpK-174" value="" style="endArrow=none;html=1;rounded=0;fontSize=15;strokeWidth=2;" edge="1" parent="1">
          <mxGeometry width="50" height="50" relative="1" as="geometry">
            <mxPoint x="1520" y="270" as="sourcePoint" />
            <mxPoint x="1520" y="150" as="targetPoint" />
          </mxGeometry>
        </mxCell>
        <mxCell id="APXlqNI634iQu10qJnpK-176" value="" style="endArrow=none;html=1;rounded=0;fontSize=15;strokeWidth=1;" edge="1" parent="1">
          <mxGeometry width="50" height="50" relative="1" as="geometry">
            <mxPoint x="1520" y="220" as="sourcePoint" />
            <mxPoint x="1600" y="220" as="targetPoint" />
          </mxGeometry>
        </mxCell>
        <mxCell id="APXlqNI634iQu10qJnpK-177" value="M_9" style="edgeLabel;html=1;align=center;verticalAlign=middle;resizable=0;points=[];fontSize=15;" vertex="1" connectable="0" parent="APXlqNI634iQu10qJnpK-176">
          <mxGeometry x="-0.3748" y="-1" relative="1" as="geometry">
            <mxPoint x="15" as="offset" />
          </mxGeometry>
        </mxCell>
        <mxCell id="APXlqNI634iQu10qJnpK-178" value="" style="endArrow=none;html=1;rounded=0;fontSize=15;strokeWidth=1;" edge="1" parent="1">
          <mxGeometry width="50" height="50" relative="1" as="geometry">
            <mxPoint x="1121" y="180" as="sourcePoint" />
            <mxPoint x="1600" y="180" as="targetPoint" />
          </mxGeometry>
        </mxCell>
        <mxCell id="APXlqNI634iQu10qJnpK-179" value="F_19" style="edgeLabel;html=1;align=center;verticalAlign=middle;resizable=0;points=[];fontSize=15;" vertex="1" connectable="0" parent="APXlqNI634iQu10qJnpK-178">
          <mxGeometry x="0.5209" y="1" relative="1" as="geometry">
            <mxPoint x="75" as="offset" />
          </mxGeometry>
        </mxCell>
        <mxCell id="APXlqNI634iQu10qJnpK-180" value="" style="endArrow=none;html=1;rounded=0;fontSize=15;strokeWidth=2;" edge="1" parent="1">
          <mxGeometry width="50" height="50" relative="1" as="geometry">
            <mxPoint x="1600" y="220" as="sourcePoint" />
            <mxPoint x="1600" y="180" as="targetPoint" />
          </mxGeometry>
        </mxCell>
        <mxCell id="APXlqNI634iQu10qJnpK-181" value="" style="endArrow=none;html=1;rounded=0;fontSize=15;strokeWidth=1;" edge="1" parent="1">
          <mxGeometry width="50" height="50" relative="1" as="geometry">
            <mxPoint x="1600" y="200" as="sourcePoint" />
            <mxPoint x="1680" y="200" as="targetPoint" />
          </mxGeometry>
        </mxCell>
        <mxCell id="APXlqNI634iQu10qJnpK-182" value="M_10" style="edgeLabel;html=1;align=center;verticalAlign=middle;resizable=0;points=[];fontSize=15;" vertex="1" connectable="0" parent="APXlqNI634iQu10qJnpK-181">
          <mxGeometry x="-0.3748" y="-1" relative="1" as="geometry">
            <mxPoint x="15" as="offset" />
          </mxGeometry>
        </mxCell>
        <mxCell id="APXlqNI634iQu10qJnpK-187" value="" style="endArrow=none;html=1;rounded=0;fontSize=15;strokeWidth=2;" edge="1" parent="1">
          <mxGeometry width="50" height="50" relative="1" as="geometry">
            <mxPoint x="1120" y="1180" as="sourcePoint" />
            <mxPoint x="1240" y="320" as="targetPoint" />
            <Array as="points">
              <mxPoint x="1240" y="1180" />
            </Array>
          </mxGeometry>
        </mxCell>
        <mxCell id="APXlqNI634iQu10qJnpK-188" value="" style="endArrow=none;html=1;rounded=0;fontSize=15;strokeWidth=2;" edge="1" parent="1">
          <mxGeometry width="50" height="50" relative="1" as="geometry">
            <mxPoint x="1120" y="1220" as="sourcePoint" />
            <mxPoint x="1260" y="320" as="targetPoint" />
            <Array as="points">
              <mxPoint x="1260" y="1220" />
            </Array>
          </mxGeometry>
        </mxCell>
        <mxCell id="APXlqNI634iQu10qJnpK-189" value="" style="endArrow=none;html=1;rounded=0;fontSize=15;strokeWidth=2;" edge="1" parent="1">
          <mxGeometry width="50" height="50" relative="1" as="geometry">
            <mxPoint x="1120" y="790" as="sourcePoint" />
            <mxPoint x="1180" y="790" as="targetPoint" />
          </mxGeometry>
        </mxCell>
        <mxCell id="APXlqNI634iQu10qJnpK-190" value="" style="endArrow=none;html=1;rounded=0;fontSize=15;strokeWidth=2;" edge="1" parent="1">
          <mxGeometry width="50" height="50" relative="1" as="geometry">
            <mxPoint x="1180" y="1160" as="sourcePoint" />
            <mxPoint x="1180" y="320" as="targetPoint" />
          </mxGeometry>
        </mxCell>
        <mxCell id="APXlqNI634iQu10qJnpK-195" value="" style="endArrow=none;html=1;rounded=0;fontSize=15;strokeWidth=2;" edge="1" parent="1">
          <mxGeometry width="50" height="50" relative="1" as="geometry">
            <mxPoint x="1120" y="349.9999999999998" as="sourcePoint" />
            <mxPoint x="1220" y="350" as="targetPoint" />
          </mxGeometry>
        </mxCell>
        <mxCell id="APXlqNI634iQu10qJnpK-196" value="" style="endArrow=none;html=1;rounded=0;fontSize=15;strokeWidth=2;" edge="1" parent="1">
          <mxGeometry width="50" height="50" relative="1" as="geometry">
            <mxPoint x="1220" y="1160" as="sourcePoint" />
            <mxPoint x="1220" y="320" as="targetPoint" />
          </mxGeometry>
        </mxCell>
        <mxCell id="APXlqNI634iQu10qJnpK-197" value="" style="endArrow=none;html=1;rounded=0;fontSize=15;strokeWidth=2;" edge="1" parent="1">
          <mxGeometry width="50" height="50" relative="1" as="geometry">
            <mxPoint x="1120" y="859.9999999999998" as="sourcePoint" />
            <mxPoint x="1200" y="860" as="targetPoint" />
          </mxGeometry>
        </mxCell>
        <mxCell id="APXlqNI634iQu10qJnpK-198" value="" style="endArrow=none;html=1;rounded=0;fontSize=15;strokeWidth=2;" edge="1" parent="1">
          <mxGeometry width="50" height="50" relative="1" as="geometry">
            <mxPoint x="1200" y="1160" as="sourcePoint" />
            <mxPoint x="1200" y="320" as="targetPoint" />
          </mxGeometry>
        </mxCell>
        <mxCell id="APXlqNI634iQu10qJnpK-199" value="" style="endArrow=none;html=1;rounded=0;fontSize=15;strokeWidth=1;" edge="1" parent="1">
          <mxGeometry width="50" height="50" relative="1" as="geometry">
            <mxPoint x="1121" y="420" as="sourcePoint" />
            <mxPoint x="1361" y="420" as="targetPoint" />
          </mxGeometry>
        </mxCell>
        <mxCell id="APXlqNI634iQu10qJnpK-200" value="F_14" style="edgeLabel;html=1;align=center;verticalAlign=middle;resizable=0;points=[];fontSize=15;" vertex="1" connectable="0" parent="APXlqNI634iQu10qJnpK-199">
          <mxGeometry x="0.5209" y="1" relative="1" as="geometry">
            <mxPoint x="6" y="1" as="offset" />
          </mxGeometry>
        </mxCell>
        <mxCell id="APXlqNI634iQu10qJnpK-201" value="" style="endArrow=none;html=1;rounded=0;fontSize=15;strokeWidth=2;" edge="1" parent="1">
          <mxGeometry width="50" height="50" relative="1" as="geometry">
            <mxPoint x="1360" y="420" as="sourcePoint" />
            <mxPoint x="1360" y="330" as="targetPoint" />
          </mxGeometry>
        </mxCell>
        <mxCell id="APXlqNI634iQu10qJnpK-202" value="" style="endArrow=none;html=1;rounded=0;fontSize=15;strokeWidth=1;" edge="1" parent="1">
          <mxGeometry width="50" height="50" relative="1" as="geometry">
            <mxPoint x="1220" y="330" as="sourcePoint" />
            <mxPoint x="1360" y="330" as="targetPoint" />
          </mxGeometry>
        </mxCell>
        <mxCell id="APXlqNI634iQu10qJnpK-204" value="F_5" style="edgeLabel;html=1;align=center;verticalAlign=middle;resizable=0;points=[];fontSize=15;" vertex="1" connectable="0" parent="APXlqNI634iQu10qJnpK-202">
          <mxGeometry x="0.2057" y="-1" relative="1" as="geometry">
            <mxPoint x="6" as="offset" />
          </mxGeometry>
        </mxCell>
        <mxCell id="APXlqNI634iQu10qJnpK-205" value="" style="endArrow=none;html=1;rounded=0;fontSize=15;strokeWidth=1;" edge="1" parent="1">
          <mxGeometry width="50" height="50" relative="1" as="geometry">
            <mxPoint x="1240" y="360" as="sourcePoint" />
            <mxPoint x="1360" y="360" as="targetPoint" />
          </mxGeometry>
        </mxCell>
        <mxCell id="APXlqNI634iQu10qJnpK-206" value="F_6" style="edgeLabel;html=1;align=center;verticalAlign=middle;resizable=0;points=[];fontSize=15;" vertex="1" connectable="0" parent="APXlqNI634iQu10qJnpK-205">
          <mxGeometry x="0.2057" y="-1" relative="1" as="geometry">
            <mxPoint x="-2" as="offset" />
          </mxGeometry>
        </mxCell>
        <mxCell id="APXlqNI634iQu10qJnpK-207" value="" style="endArrow=none;html=1;rounded=0;fontSize=15;strokeWidth=1;" edge="1" parent="1">
          <mxGeometry width="50" height="50" relative="1" as="geometry">
            <mxPoint x="1260" y="390" as="sourcePoint" />
            <mxPoint x="1361" y="390" as="targetPoint" />
          </mxGeometry>
        </mxCell>
        <mxCell id="APXlqNI634iQu10qJnpK-208" value="F_8" style="edgeLabel;html=1;align=center;verticalAlign=middle;resizable=0;points=[];fontSize=15;" vertex="1" connectable="0" parent="APXlqNI634iQu10qJnpK-207">
          <mxGeometry x="0.2057" y="-1" relative="1" as="geometry">
            <mxPoint x="-11" as="offset" />
          </mxGeometry>
        </mxCell>
        <mxCell id="APXlqNI634iQu10qJnpK-209" value="" style="endArrow=none;html=1;rounded=0;fontSize=15;strokeWidth=1;" edge="1" parent="1">
          <mxGeometry width="50" height="50" relative="1" as="geometry">
            <mxPoint x="1360" y="370" as="sourcePoint" />
            <mxPoint x="1680" y="370" as="targetPoint" />
          </mxGeometry>
        </mxCell>
        <mxCell id="APXlqNI634iQu10qJnpK-210" value="M_3" style="edgeLabel;html=1;align=center;verticalAlign=middle;resizable=0;points=[];fontSize=15;" vertex="1" connectable="0" parent="APXlqNI634iQu10qJnpK-209">
          <mxGeometry x="-0.3748" y="-1" relative="1" as="geometry">
            <mxPoint x="180" as="offset" />
          </mxGeometry>
        </mxCell>
        <mxCell id="APXlqNI634iQu10qJnpK-211" value="" style="endArrow=none;html=1;rounded=0;fontSize=15;strokeWidth=1;" edge="1" parent="1">
          <mxGeometry width="50" height="50" relative="1" as="geometry">
            <mxPoint x="1120" y="460" as="sourcePoint" />
            <mxPoint x="1360" y="460" as="targetPoint" />
          </mxGeometry>
        </mxCell>
        <mxCell id="APXlqNI634iQu10qJnpK-212" value="F_15" style="edgeLabel;html=1;align=center;verticalAlign=middle;resizable=0;points=[];fontSize=15;" vertex="1" connectable="0" parent="APXlqNI634iQu10qJnpK-211">
          <mxGeometry x="0.5209" y="1" relative="1" as="geometry">
            <mxPoint x="6" y="1" as="offset" />
          </mxGeometry>
        </mxCell>
        <mxCell id="APXlqNI634iQu10qJnpK-213" value="" style="endArrow=none;html=1;rounded=0;fontSize=15;strokeWidth=1;" edge="1" parent="1">
          <mxGeometry width="50" height="50" relative="1" as="geometry">
            <mxPoint x="1160" y="440" as="sourcePoint" />
            <mxPoint x="1360" y="440" as="targetPoint" />
          </mxGeometry>
        </mxCell>
        <mxCell id="APXlqNI634iQu10qJnpK-214" value="S_6" style="edgeLabel;html=1;align=center;verticalAlign=middle;resizable=0;points=[];fontSize=15;" vertex="1" connectable="0" parent="APXlqNI634iQu10qJnpK-213">
          <mxGeometry x="0.1251" y="2" relative="1" as="geometry">
            <mxPoint x="37" y="4" as="offset" />
          </mxGeometry>
        </mxCell>
        <mxCell id="APXlqNI634iQu10qJnpK-215" value="" style="endArrow=none;html=1;rounded=0;fontSize=15;strokeWidth=2;" edge="1" parent="1">
          <mxGeometry width="50" height="50" relative="1" as="geometry">
            <mxPoint x="1360" y="560" as="sourcePoint" />
            <mxPoint x="1360" y="440" as="targetPoint" />
          </mxGeometry>
        </mxCell>
        <mxCell id="APXlqNI634iQu10qJnpK-216" value="" style="endArrow=none;html=1;rounded=0;fontSize=15;strokeWidth=1;" edge="1" parent="1">
          <mxGeometry width="50" height="50" relative="1" as="geometry">
            <mxPoint x="1220" y="480" as="sourcePoint" />
            <mxPoint x="1360" y="480" as="targetPoint" />
          </mxGeometry>
        </mxCell>
        <mxCell id="APXlqNI634iQu10qJnpK-217" value="F_5" style="edgeLabel;html=1;align=center;verticalAlign=middle;resizable=0;points=[];fontSize=15;" vertex="1" connectable="0" parent="APXlqNI634iQu10qJnpK-216">
          <mxGeometry x="0.2057" y="-1" relative="1" as="geometry">
            <mxPoint x="6" as="offset" />
          </mxGeometry>
        </mxCell>
        <mxCell id="APXlqNI634iQu10qJnpK-218" value="" style="endArrow=none;html=1;rounded=0;fontSize=15;strokeWidth=1;" edge="1" parent="1">
          <mxGeometry width="50" height="50" relative="1" as="geometry">
            <mxPoint x="1241" y="500" as="sourcePoint" />
            <mxPoint x="1361" y="500" as="targetPoint" />
          </mxGeometry>
        </mxCell>
        <mxCell id="APXlqNI634iQu10qJnpK-219" value="F_6" style="edgeLabel;html=1;align=center;verticalAlign=middle;resizable=0;points=[];fontSize=15;" vertex="1" connectable="0" parent="APXlqNI634iQu10qJnpK-218">
          <mxGeometry x="0.2057" y="-1" relative="1" as="geometry">
            <mxPoint x="-2" as="offset" />
          </mxGeometry>
        </mxCell>
        <mxCell id="APXlqNI634iQu10qJnpK-220" value="" style="endArrow=none;html=1;rounded=0;fontSize=15;strokeWidth=1;" edge="1" parent="1">
          <mxGeometry width="50" height="50" relative="1" as="geometry">
            <mxPoint x="1260" y="520" as="sourcePoint" />
            <mxPoint x="1361" y="520" as="targetPoint" />
          </mxGeometry>
        </mxCell>
        <mxCell id="APXlqNI634iQu10qJnpK-221" value="F_8" style="edgeLabel;html=1;align=center;verticalAlign=middle;resizable=0;points=[];fontSize=15;" vertex="1" connectable="0" parent="APXlqNI634iQu10qJnpK-220">
          <mxGeometry x="0.2057" y="-1" relative="1" as="geometry">
            <mxPoint x="-11" as="offset" />
          </mxGeometry>
        </mxCell>
        <mxCell id="APXlqNI634iQu10qJnpK-222" value="" style="endArrow=none;html=1;rounded=0;fontSize=15;strokeWidth=1;" edge="1" parent="1">
          <mxGeometry width="50" height="50" relative="1" as="geometry">
            <mxPoint x="1200" y="560" as="sourcePoint" />
            <mxPoint x="1361" y="560" as="targetPoint" />
          </mxGeometry>
        </mxCell>
        <mxCell id="APXlqNI634iQu10qJnpK-223" value="F_7" style="edgeLabel;html=1;align=center;verticalAlign=middle;resizable=0;points=[];fontSize=15;" vertex="1" connectable="0" parent="APXlqNI634iQu10qJnpK-222">
          <mxGeometry x="0.2057" y="-1" relative="1" as="geometry">
            <mxPoint x="13" as="offset" />
          </mxGeometry>
        </mxCell>
        <mxCell id="APXlqNI634iQu10qJnpK-224" value="" style="endArrow=none;html=1;rounded=0;fontSize=15;strokeWidth=1;" edge="1" parent="1">
          <mxGeometry width="50" height="50" relative="1" as="geometry">
            <mxPoint x="1180" y="540" as="sourcePoint" />
            <mxPoint x="1361" y="540" as="targetPoint" />
          </mxGeometry>
        </mxCell>
        <mxCell id="APXlqNI634iQu10qJnpK-225" value="F_4" style="edgeLabel;html=1;align=center;verticalAlign=middle;resizable=0;points=[];fontSize=15;" vertex="1" connectable="0" parent="APXlqNI634iQu10qJnpK-224">
          <mxGeometry x="0.2057" y="-1" relative="1" as="geometry">
            <mxPoint x="21" as="offset" />
          </mxGeometry>
        </mxCell>
        <mxCell id="APXlqNI634iQu10qJnpK-227" value="" style="endArrow=none;html=1;rounded=0;fontSize=15;strokeWidth=1;" edge="1" parent="1">
          <mxGeometry width="50" height="50" relative="1" as="geometry">
            <mxPoint x="1360" y="500" as="sourcePoint" />
            <mxPoint x="1680" y="500" as="targetPoint" />
          </mxGeometry>
        </mxCell>
        <mxCell id="APXlqNI634iQu10qJnpK-228" value="M_4" style="edgeLabel;html=1;align=center;verticalAlign=middle;resizable=0;points=[];fontSize=15;" vertex="1" connectable="0" parent="APXlqNI634iQu10qJnpK-227">
          <mxGeometry x="-0.3748" y="-1" relative="1" as="geometry">
            <mxPoint x="180" y="-1" as="offset" />
          </mxGeometry>
        </mxCell>
        <mxCell id="APXlqNI634iQu10qJnpK-229" value="F_16" style="edgeLabel;html=1;align=center;verticalAlign=middle;resizable=0;points=[];fontSize=15;" vertex="1" connectable="0" parent="1">
          <mxGeometry x="1309.1052631578946" y="690" as="geometry" />
        </mxCell>
        <mxCell id="APXlqNI634iQu10qJnpK-230" value="" style="endArrow=none;html=1;rounded=0;fontSize=15;strokeWidth=2;" edge="1" parent="1">
          <mxGeometry width="50" height="50" relative="1" as="geometry">
            <mxPoint x="1360" y="690" as="sourcePoint" />
            <mxPoint x="1360" y="600" as="targetPoint" />
          </mxGeometry>
        </mxCell>
        <mxCell id="APXlqNI634iQu10qJnpK-231" value="" style="endArrow=none;html=1;rounded=0;fontSize=15;strokeWidth=1;" edge="1" parent="1">
          <mxGeometry width="50" height="50" relative="1" as="geometry">
            <mxPoint x="1220" y="600" as="sourcePoint" />
            <mxPoint x="1360" y="600" as="targetPoint" />
          </mxGeometry>
        </mxCell>
        <mxCell id="APXlqNI634iQu10qJnpK-232" value="F_5" style="edgeLabel;html=1;align=center;verticalAlign=middle;resizable=0;points=[];fontSize=15;" vertex="1" connectable="0" parent="APXlqNI634iQu10qJnpK-231">
          <mxGeometry x="0.2057" y="-1" relative="1" as="geometry">
            <mxPoint x="6" as="offset" />
          </mxGeometry>
        </mxCell>
        <mxCell id="APXlqNI634iQu10qJnpK-233" value="" style="endArrow=none;html=1;rounded=0;fontSize=15;strokeWidth=1;" edge="1" parent="1">
          <mxGeometry width="50" height="50" relative="1" as="geometry">
            <mxPoint x="1240" y="630" as="sourcePoint" />
            <mxPoint x="1360" y="630" as="targetPoint" />
          </mxGeometry>
        </mxCell>
        <mxCell id="APXlqNI634iQu10qJnpK-234" value="F_6" style="edgeLabel;html=1;align=center;verticalAlign=middle;resizable=0;points=[];fontSize=15;" vertex="1" connectable="0" parent="APXlqNI634iQu10qJnpK-233">
          <mxGeometry x="0.2057" y="-1" relative="1" as="geometry">
            <mxPoint x="-2" as="offset" />
          </mxGeometry>
        </mxCell>
        <mxCell id="APXlqNI634iQu10qJnpK-235" value="" style="endArrow=none;html=1;rounded=0;fontSize=15;strokeWidth=1;" edge="1" parent="1">
          <mxGeometry width="50" height="50" relative="1" as="geometry">
            <mxPoint x="1260" y="660" as="sourcePoint" />
            <mxPoint x="1361" y="660" as="targetPoint" />
          </mxGeometry>
        </mxCell>
        <mxCell id="APXlqNI634iQu10qJnpK-236" value="F_8" style="edgeLabel;html=1;align=center;verticalAlign=middle;resizable=0;points=[];fontSize=15;" vertex="1" connectable="0" parent="APXlqNI634iQu10qJnpK-235">
          <mxGeometry x="0.2057" y="-1" relative="1" as="geometry">
            <mxPoint x="-11" as="offset" />
          </mxGeometry>
        </mxCell>
        <mxCell id="APXlqNI634iQu10qJnpK-237" value="" style="endArrow=none;html=1;rounded=0;fontSize=15;strokeWidth=1;" edge="1" parent="1">
          <mxGeometry width="50" height="50" relative="1" as="geometry">
            <mxPoint x="1360" y="640" as="sourcePoint" />
            <mxPoint x="1680" y="640" as="targetPoint" />
          </mxGeometry>
        </mxCell>
        <mxCell id="APXlqNI634iQu10qJnpK-238" value="M_5" style="edgeLabel;html=1;align=center;verticalAlign=middle;resizable=0;points=[];fontSize=15;" vertex="1" connectable="0" parent="APXlqNI634iQu10qJnpK-237">
          <mxGeometry x="-0.3748" y="-1" relative="1" as="geometry">
            <mxPoint x="180" as="offset" />
          </mxGeometry>
        </mxCell>
        <mxCell id="APXlqNI634iQu10qJnpK-239" value="" style="endArrow=none;html=1;rounded=0;fontSize=15;strokeWidth=1;" edge="1" parent="1">
          <mxGeometry width="50" height="50" relative="1" as="geometry">
            <mxPoint x="1121" y="690" as="sourcePoint" />
            <mxPoint x="1361" y="690" as="targetPoint" />
          </mxGeometry>
        </mxCell>
        <mxCell id="APXlqNI634iQu10qJnpK-240" value="F_16" style="edgeLabel;html=1;align=center;verticalAlign=middle;resizable=0;points=[];fontSize=15;" vertex="1" connectable="0" parent="APXlqNI634iQu10qJnpK-239">
          <mxGeometry x="0.5209" y="1" relative="1" as="geometry">
            <mxPoint x="6" y="1" as="offset" />
          </mxGeometry>
        </mxCell>
        <mxCell id="APXlqNI634iQu10qJnpK-241" value="" style="endArrow=none;html=1;rounded=0;fontSize=15;strokeWidth=1;" edge="1" parent="1">
          <mxGeometry width="50" height="50" relative="1" as="geometry">
            <mxPoint x="1120" y="730" as="sourcePoint" />
            <mxPoint x="1360" y="730" as="targetPoint" />
          </mxGeometry>
        </mxCell>
        <mxCell id="APXlqNI634iQu10qJnpK-242" value="F_17" style="edgeLabel;html=1;align=center;verticalAlign=middle;resizable=0;points=[];fontSize=15;" vertex="1" connectable="0" parent="APXlqNI634iQu10qJnpK-241">
          <mxGeometry x="0.5209" y="1" relative="1" as="geometry">
            <mxPoint x="6" y="1" as="offset" />
          </mxGeometry>
        </mxCell>
        <mxCell id="APXlqNI634iQu10qJnpK-243" value="" style="endArrow=none;html=1;rounded=0;fontSize=15;strokeWidth=1;" edge="1" parent="1">
          <mxGeometry width="50" height="50" relative="1" as="geometry">
            <mxPoint x="1160" y="710" as="sourcePoint" />
            <mxPoint x="1360" y="710" as="targetPoint" />
          </mxGeometry>
        </mxCell>
        <mxCell id="APXlqNI634iQu10qJnpK-244" value="S_6" style="edgeLabel;html=1;align=center;verticalAlign=middle;resizable=0;points=[];fontSize=15;" vertex="1" connectable="0" parent="APXlqNI634iQu10qJnpK-243">
          <mxGeometry x="0.1251" y="2" relative="1" as="geometry">
            <mxPoint x="37" y="4" as="offset" />
          </mxGeometry>
        </mxCell>
        <mxCell id="APXlqNI634iQu10qJnpK-245" value="" style="endArrow=none;html=1;rounded=0;fontSize=15;strokeWidth=2;" edge="1" parent="1">
          <mxGeometry width="50" height="50" relative="1" as="geometry">
            <mxPoint x="1360" y="830" as="sourcePoint" />
            <mxPoint x="1360" y="710" as="targetPoint" />
          </mxGeometry>
        </mxCell>
        <mxCell id="APXlqNI634iQu10qJnpK-246" value="" style="endArrow=none;html=1;rounded=0;fontSize=15;strokeWidth=1;" edge="1" parent="1">
          <mxGeometry width="50" height="50" relative="1" as="geometry">
            <mxPoint x="1220" y="750" as="sourcePoint" />
            <mxPoint x="1360" y="750" as="targetPoint" />
          </mxGeometry>
        </mxCell>
        <mxCell id="APXlqNI634iQu10qJnpK-247" value="F_5" style="edgeLabel;html=1;align=center;verticalAlign=middle;resizable=0;points=[];fontSize=15;" vertex="1" connectable="0" parent="APXlqNI634iQu10qJnpK-246">
          <mxGeometry x="0.2057" y="-1" relative="1" as="geometry">
            <mxPoint x="6" as="offset" />
          </mxGeometry>
        </mxCell>
        <mxCell id="APXlqNI634iQu10qJnpK-248" value="" style="endArrow=none;html=1;rounded=0;fontSize=15;strokeWidth=1;" edge="1" parent="1">
          <mxGeometry width="50" height="50" relative="1" as="geometry">
            <mxPoint x="1241" y="770" as="sourcePoint" />
            <mxPoint x="1361" y="770" as="targetPoint" />
          </mxGeometry>
        </mxCell>
        <mxCell id="APXlqNI634iQu10qJnpK-249" value="F_6" style="edgeLabel;html=1;align=center;verticalAlign=middle;resizable=0;points=[];fontSize=15;" vertex="1" connectable="0" parent="APXlqNI634iQu10qJnpK-248">
          <mxGeometry x="0.2057" y="-1" relative="1" as="geometry">
            <mxPoint x="-2" as="offset" />
          </mxGeometry>
        </mxCell>
        <mxCell id="APXlqNI634iQu10qJnpK-250" value="" style="endArrow=none;html=1;rounded=0;fontSize=15;strokeWidth=1;" edge="1" parent="1">
          <mxGeometry width="50" height="50" relative="1" as="geometry">
            <mxPoint x="1260" y="790" as="sourcePoint" />
            <mxPoint x="1361" y="790" as="targetPoint" />
          </mxGeometry>
        </mxCell>
        <mxCell id="APXlqNI634iQu10qJnpK-251" value="F_8" style="edgeLabel;html=1;align=center;verticalAlign=middle;resizable=0;points=[];fontSize=15;" vertex="1" connectable="0" parent="APXlqNI634iQu10qJnpK-250">
          <mxGeometry x="0.2057" y="-1" relative="1" as="geometry">
            <mxPoint x="-11" as="offset" />
          </mxGeometry>
        </mxCell>
        <mxCell id="APXlqNI634iQu10qJnpK-252" value="" style="endArrow=none;html=1;rounded=0;fontSize=15;strokeWidth=1;" edge="1" parent="1">
          <mxGeometry width="50" height="50" relative="1" as="geometry">
            <mxPoint x="1200" y="830" as="sourcePoint" />
            <mxPoint x="1361" y="830" as="targetPoint" />
          </mxGeometry>
        </mxCell>
        <mxCell id="APXlqNI634iQu10qJnpK-253" value="F_7" style="edgeLabel;html=1;align=center;verticalAlign=middle;resizable=0;points=[];fontSize=15;" vertex="1" connectable="0" parent="APXlqNI634iQu10qJnpK-252">
          <mxGeometry x="0.2057" y="-1" relative="1" as="geometry">
            <mxPoint x="13" as="offset" />
          </mxGeometry>
        </mxCell>
        <mxCell id="APXlqNI634iQu10qJnpK-254" value="" style="endArrow=none;html=1;rounded=0;fontSize=15;strokeWidth=1;" edge="1" parent="1">
          <mxGeometry width="50" height="50" relative="1" as="geometry">
            <mxPoint x="1180" y="810" as="sourcePoint" />
            <mxPoint x="1361" y="810" as="targetPoint" />
          </mxGeometry>
        </mxCell>
        <mxCell id="APXlqNI634iQu10qJnpK-255" value="F_4" style="edgeLabel;html=1;align=center;verticalAlign=middle;resizable=0;points=[];fontSize=15;" vertex="1" connectable="0" parent="APXlqNI634iQu10qJnpK-254">
          <mxGeometry x="0.2057" y="-1" relative="1" as="geometry">
            <mxPoint x="21" as="offset" />
          </mxGeometry>
        </mxCell>
        <mxCell id="APXlqNI634iQu10qJnpK-256" value="" style="endArrow=none;html=1;rounded=0;fontSize=15;strokeWidth=1;" edge="1" parent="1">
          <mxGeometry width="50" height="50" relative="1" as="geometry">
            <mxPoint x="1360" y="770" as="sourcePoint" />
            <mxPoint x="1680" y="770" as="targetPoint" />
            <Array as="points">
              <mxPoint x="1400" y="770" />
            </Array>
          </mxGeometry>
        </mxCell>
        <mxCell id="APXlqNI634iQu10qJnpK-257" value="M_6" style="edgeLabel;html=1;align=center;verticalAlign=middle;resizable=0;points=[];fontSize=15;" vertex="1" connectable="0" parent="APXlqNI634iQu10qJnpK-256">
          <mxGeometry x="-0.3748" y="-1" relative="1" as="geometry">
            <mxPoint x="180" as="offset" />
          </mxGeometry>
        </mxCell>
        <mxCell id="APXlqNI634iQu10qJnpK-258" value="F_16" style="edgeLabel;html=1;align=center;verticalAlign=middle;resizable=0;points=[];fontSize=15;" vertex="1" connectable="0" parent="1">
          <mxGeometry x="1309.1052631578946" y="980" as="geometry" />
        </mxCell>
        <mxCell id="APXlqNI634iQu10qJnpK-259" value="" style="endArrow=none;html=1;rounded=0;fontSize=15;strokeWidth=2;" edge="1" parent="1">
          <mxGeometry width="50" height="50" relative="1" as="geometry">
            <mxPoint x="1360" y="980" as="sourcePoint" />
            <mxPoint x="1360" y="890" as="targetPoint" />
          </mxGeometry>
        </mxCell>
        <mxCell id="APXlqNI634iQu10qJnpK-260" value="" style="endArrow=none;html=1;rounded=0;fontSize=15;strokeWidth=1;" edge="1" parent="1">
          <mxGeometry width="50" height="50" relative="1" as="geometry">
            <mxPoint x="1220" y="890" as="sourcePoint" />
            <mxPoint x="1360" y="890" as="targetPoint" />
          </mxGeometry>
        </mxCell>
        <mxCell id="APXlqNI634iQu10qJnpK-261" value="F_5" style="edgeLabel;html=1;align=center;verticalAlign=middle;resizable=0;points=[];fontSize=15;" vertex="1" connectable="0" parent="APXlqNI634iQu10qJnpK-260">
          <mxGeometry x="0.2057" y="-1" relative="1" as="geometry">
            <mxPoint x="6" as="offset" />
          </mxGeometry>
        </mxCell>
        <mxCell id="APXlqNI634iQu10qJnpK-262" value="" style="endArrow=none;html=1;rounded=0;fontSize=15;strokeWidth=1;" edge="1" parent="1">
          <mxGeometry width="50" height="50" relative="1" as="geometry">
            <mxPoint x="1240" y="920" as="sourcePoint" />
            <mxPoint x="1360" y="920" as="targetPoint" />
          </mxGeometry>
        </mxCell>
        <mxCell id="APXlqNI634iQu10qJnpK-263" value="F_6" style="edgeLabel;html=1;align=center;verticalAlign=middle;resizable=0;points=[];fontSize=15;" vertex="1" connectable="0" parent="APXlqNI634iQu10qJnpK-262">
          <mxGeometry x="0.2057" y="-1" relative="1" as="geometry">
            <mxPoint x="-2" as="offset" />
          </mxGeometry>
        </mxCell>
        <mxCell id="APXlqNI634iQu10qJnpK-264" value="" style="endArrow=none;html=1;rounded=0;fontSize=15;strokeWidth=1;" edge="1" parent="1">
          <mxGeometry width="50" height="50" relative="1" as="geometry">
            <mxPoint x="1260" y="950" as="sourcePoint" />
            <mxPoint x="1361" y="950" as="targetPoint" />
          </mxGeometry>
        </mxCell>
        <mxCell id="APXlqNI634iQu10qJnpK-265" value="F_8" style="edgeLabel;html=1;align=center;verticalAlign=middle;resizable=0;points=[];fontSize=15;" vertex="1" connectable="0" parent="APXlqNI634iQu10qJnpK-264">
          <mxGeometry x="0.2057" y="-1" relative="1" as="geometry">
            <mxPoint x="-11" as="offset" />
          </mxGeometry>
        </mxCell>
        <mxCell id="APXlqNI634iQu10qJnpK-266" value="" style="endArrow=none;html=1;rounded=0;fontSize=15;strokeWidth=1;" edge="1" parent="1">
          <mxGeometry width="50" height="50" relative="1" as="geometry">
            <mxPoint x="1360" y="930" as="sourcePoint" />
            <mxPoint x="1680" y="930" as="targetPoint" />
          </mxGeometry>
        </mxCell>
        <mxCell id="APXlqNI634iQu10qJnpK-267" value="M_1" style="edgeLabel;html=1;align=center;verticalAlign=middle;resizable=0;points=[];fontSize=15;" vertex="1" connectable="0" parent="APXlqNI634iQu10qJnpK-266">
          <mxGeometry x="-0.3748" y="-1" relative="1" as="geometry">
            <mxPoint x="180" as="offset" />
          </mxGeometry>
        </mxCell>
        <mxCell id="APXlqNI634iQu10qJnpK-268" value="F_12" style="edgeLabel;html=1;align=center;verticalAlign=middle;resizable=0;points=[];fontSize=15;" vertex="1" connectable="0" parent="1">
          <mxGeometry x="1309.1052631578946" y="980" as="geometry" />
        </mxCell>
        <mxCell id="APXlqNI634iQu10qJnpK-269" value="F_13" style="edgeLabel;html=1;align=center;verticalAlign=middle;resizable=0;points=[];fontSize=15;" vertex="1" connectable="0" parent="1">
          <mxGeometry x="1308.1052631578946" y="1040" as="geometry" />
        </mxCell>
        <mxCell id="APXlqNI634iQu10qJnpK-270" value="" style="endArrow=none;html=1;rounded=0;fontSize=15;strokeWidth=1;" edge="1" parent="1">
          <mxGeometry width="50" height="50" relative="1" as="geometry">
            <mxPoint x="1160" y="1020" as="sourcePoint" />
            <mxPoint x="1360" y="1020" as="targetPoint" />
          </mxGeometry>
        </mxCell>
        <mxCell id="APXlqNI634iQu10qJnpK-271" value="S_6" style="edgeLabel;html=1;align=center;verticalAlign=middle;resizable=0;points=[];fontSize=15;" vertex="1" connectable="0" parent="APXlqNI634iQu10qJnpK-270">
          <mxGeometry x="0.1251" y="2" relative="1" as="geometry">
            <mxPoint x="37" y="4" as="offset" />
          </mxGeometry>
        </mxCell>
        <mxCell id="APXlqNI634iQu10qJnpK-272" value="" style="endArrow=none;html=1;rounded=0;fontSize=15;strokeWidth=2;" edge="1" parent="1">
          <mxGeometry width="50" height="50" relative="1" as="geometry">
            <mxPoint x="1360" y="1140" as="sourcePoint" />
            <mxPoint x="1360" y="1020" as="targetPoint" />
          </mxGeometry>
        </mxCell>
        <mxCell id="APXlqNI634iQu10qJnpK-273" value="" style="endArrow=none;html=1;rounded=0;fontSize=15;strokeWidth=1;" edge="1" parent="1">
          <mxGeometry width="50" height="50" relative="1" as="geometry">
            <mxPoint x="1220" y="1060" as="sourcePoint" />
            <mxPoint x="1360" y="1060" as="targetPoint" />
          </mxGeometry>
        </mxCell>
        <mxCell id="APXlqNI634iQu10qJnpK-274" value="F_5" style="edgeLabel;html=1;align=center;verticalAlign=middle;resizable=0;points=[];fontSize=15;" vertex="1" connectable="0" parent="APXlqNI634iQu10qJnpK-273">
          <mxGeometry x="0.2057" y="-1" relative="1" as="geometry">
            <mxPoint x="6" as="offset" />
          </mxGeometry>
        </mxCell>
        <mxCell id="APXlqNI634iQu10qJnpK-275" value="" style="endArrow=none;html=1;rounded=0;fontSize=15;strokeWidth=1;" edge="1" parent="1">
          <mxGeometry width="50" height="50" relative="1" as="geometry">
            <mxPoint x="1241" y="1080" as="sourcePoint" />
            <mxPoint x="1361" y="1080" as="targetPoint" />
          </mxGeometry>
        </mxCell>
        <mxCell id="APXlqNI634iQu10qJnpK-276" value="F_6" style="edgeLabel;html=1;align=center;verticalAlign=middle;resizable=0;points=[];fontSize=15;" vertex="1" connectable="0" parent="APXlqNI634iQu10qJnpK-275">
          <mxGeometry x="0.2057" y="-1" relative="1" as="geometry">
            <mxPoint x="-2" as="offset" />
          </mxGeometry>
        </mxCell>
        <mxCell id="APXlqNI634iQu10qJnpK-277" value="" style="endArrow=none;html=1;rounded=0;fontSize=15;strokeWidth=1;" edge="1" parent="1">
          <mxGeometry width="50" height="50" relative="1" as="geometry">
            <mxPoint x="1260" y="1100" as="sourcePoint" />
            <mxPoint x="1361" y="1100" as="targetPoint" />
          </mxGeometry>
        </mxCell>
        <mxCell id="APXlqNI634iQu10qJnpK-278" value="F_8" style="edgeLabel;html=1;align=center;verticalAlign=middle;resizable=0;points=[];fontSize=15;" vertex="1" connectable="0" parent="APXlqNI634iQu10qJnpK-277">
          <mxGeometry x="0.2057" y="-1" relative="1" as="geometry">
            <mxPoint x="-11" as="offset" />
          </mxGeometry>
        </mxCell>
        <mxCell id="APXlqNI634iQu10qJnpK-279" value="" style="endArrow=none;html=1;rounded=0;fontSize=15;strokeWidth=1;" edge="1" parent="1">
          <mxGeometry width="50" height="50" relative="1" as="geometry">
            <mxPoint x="1200" y="1140" as="sourcePoint" />
            <mxPoint x="1361" y="1140" as="targetPoint" />
          </mxGeometry>
        </mxCell>
        <mxCell id="APXlqNI634iQu10qJnpK-280" value="F_7" style="edgeLabel;html=1;align=center;verticalAlign=middle;resizable=0;points=[];fontSize=15;" vertex="1" connectable="0" parent="APXlqNI634iQu10qJnpK-279">
          <mxGeometry x="0.2057" y="-1" relative="1" as="geometry">
            <mxPoint x="13" as="offset" />
          </mxGeometry>
        </mxCell>
        <mxCell id="APXlqNI634iQu10qJnpK-281" value="" style="endArrow=none;html=1;rounded=0;fontSize=15;strokeWidth=1;" edge="1" parent="1">
          <mxGeometry width="50" height="50" relative="1" as="geometry">
            <mxPoint x="1180" y="1120" as="sourcePoint" />
            <mxPoint x="1361" y="1120" as="targetPoint" />
          </mxGeometry>
        </mxCell>
        <mxCell id="APXlqNI634iQu10qJnpK-282" value="F_4" style="edgeLabel;html=1;align=center;verticalAlign=middle;resizable=0;points=[];fontSize=15;" vertex="1" connectable="0" parent="APXlqNI634iQu10qJnpK-281">
          <mxGeometry x="0.2057" y="-1" relative="1" as="geometry">
            <mxPoint x="21" as="offset" />
          </mxGeometry>
        </mxCell>
        <mxCell id="APXlqNI634iQu10qJnpK-283" value="" style="endArrow=none;html=1;rounded=0;fontSize=15;strokeWidth=1;" edge="1" parent="1">
          <mxGeometry width="50" height="50" relative="1" as="geometry">
            <mxPoint x="1360" y="1080" as="sourcePoint" />
            <mxPoint x="1680" y="1080" as="targetPoint" />
            <Array as="points">
              <mxPoint x="1400" y="1080" />
            </Array>
          </mxGeometry>
        </mxCell>
        <mxCell id="APXlqNI634iQu10qJnpK-284" value="M_2" style="edgeLabel;html=1;align=center;verticalAlign=middle;resizable=0;points=[];fontSize=15;" vertex="1" connectable="0" parent="APXlqNI634iQu10qJnpK-283">
          <mxGeometry x="-0.3748" y="-1" relative="1" as="geometry">
            <mxPoint x="180" as="offset" />
          </mxGeometry>
        </mxCell>
        <mxCell id="APXlqNI634iQu10qJnpK-285" value="" style="endArrow=none;html=1;rounded=0;fontSize=15;strokeWidth=1;" edge="1" parent="1">
          <mxGeometry width="50" height="50" relative="1" as="geometry">
            <mxPoint x="1120" y="980" as="sourcePoint" />
            <mxPoint x="1360" y="980" as="targetPoint" />
          </mxGeometry>
        </mxCell>
        <mxCell id="APXlqNI634iQu10qJnpK-286" value="F_12" style="edgeLabel;html=1;align=center;verticalAlign=middle;resizable=0;points=[];fontSize=15;" vertex="1" connectable="0" parent="APXlqNI634iQu10qJnpK-285">
          <mxGeometry x="0.5209" y="1" relative="1" as="geometry">
            <mxPoint x="6" y="1" as="offset" />
          </mxGeometry>
        </mxCell>
        <mxCell id="APXlqNI634iQu10qJnpK-287" value="" style="endArrow=none;html=1;rounded=0;fontSize=15;strokeWidth=1;" edge="1" parent="1">
          <mxGeometry width="50" height="50" relative="1" as="geometry">
            <mxPoint x="1120" y="1039.66" as="sourcePoint" />
            <mxPoint x="1360" y="1039.66" as="targetPoint" />
          </mxGeometry>
        </mxCell>
        <mxCell id="APXlqNI634iQu10qJnpK-288" value="F_13" style="edgeLabel;html=1;align=center;verticalAlign=middle;resizable=0;points=[];fontSize=15;" vertex="1" connectable="0" parent="APXlqNI634iQu10qJnpK-287">
          <mxGeometry x="0.5209" y="1" relative="1" as="geometry">
            <mxPoint x="6" y="1" as="offset" />
          </mxGeometry>
        </mxCell>
        <mxCell id="APXlqNI634iQu10qJnpK-289" value="" style="endArrow=none;html=1;rounded=0;fontSize=15;strokeWidth=2;" edge="1" parent="1">
          <mxGeometry width="50" height="50" relative="1" as="geometry">
            <mxPoint x="1720" y="1280" as="sourcePoint" />
            <mxPoint x="1720" y="120" as="targetPoint" />
          </mxGeometry>
        </mxCell>
        <mxCell id="APXlqNI634iQu10qJnpK-292" value="I_5" style="edgeLabel;html=1;align=center;verticalAlign=middle;resizable=0;points=[];fontSize=15;" vertex="1" connectable="0" parent="APXlqNI634iQu10qJnpK-289">
          <mxGeometry x="-0.8485" y="2" relative="1" as="geometry">
            <mxPoint y="-9" as="offset" />
          </mxGeometry>
        </mxCell>
        <mxCell id="APXlqNI634iQu10qJnpK-290" value="" style="endArrow=none;html=1;rounded=0;fontSize=15;strokeWidth=2;" edge="1" parent="1">
          <mxGeometry width="50" height="50" relative="1" as="geometry">
            <mxPoint x="1760" y="1280" as="sourcePoint" />
            <mxPoint x="1760" y="120" as="targetPoint" />
          </mxGeometry>
        </mxCell>
        <mxCell id="APXlqNI634iQu10qJnpK-293" value="I_8" style="edgeLabel;html=1;align=center;verticalAlign=middle;resizable=0;points=[];fontSize=15;" vertex="1" connectable="0" parent="APXlqNI634iQu10qJnpK-290">
          <mxGeometry x="-0.8955" y="1" relative="1" as="geometry">
            <mxPoint as="offset" />
          </mxGeometry>
        </mxCell>
        <mxCell id="APXlqNI634iQu10qJnpK-291" value="" style="endArrow=none;html=1;rounded=0;fontSize=15;strokeWidth=2;" edge="1" parent="1">
          <mxGeometry width="50" height="50" relative="1" as="geometry">
            <mxPoint x="1800" y="1280" as="sourcePoint" />
            <mxPoint x="1800" y="120" as="targetPoint" />
          </mxGeometry>
        </mxCell>
        <mxCell id="APXlqNI634iQu10qJnpK-294" value="I_10" style="edgeLabel;html=1;align=center;verticalAlign=middle;resizable=0;points=[];fontSize=15;" vertex="1" connectable="0" parent="APXlqNI634iQu10qJnpK-291">
          <mxGeometry x="-0.9581" y="1" relative="1" as="geometry">
            <mxPoint as="offset" />
          </mxGeometry>
        </mxCell>
        <mxCell id="APXlqNI634iQu10qJnpK-295" value="" style="endArrow=none;html=1;rounded=0;fontSize=15;strokeWidth=1;" edge="1" parent="1">
          <mxGeometry width="50" height="50" relative="1" as="geometry">
            <mxPoint x="1680" y="200" as="sourcePoint" />
            <mxPoint x="1880" y="200" as="targetPoint" />
          </mxGeometry>
        </mxCell>
        <mxCell id="APXlqNI634iQu10qJnpK-296" value="M_10" style="edgeLabel;html=1;align=center;verticalAlign=middle;resizable=0;points=[];fontSize=15;" vertex="1" connectable="0" parent="APXlqNI634iQu10qJnpK-295">
          <mxGeometry x="0.2057" y="-1" relative="1" as="geometry">
            <mxPoint x="39" as="offset" />
          </mxGeometry>
        </mxCell>
        <mxCell id="APXlqNI634iQu10qJnpK-297" value="" style="endArrow=none;html=1;rounded=0;fontSize=15;strokeWidth=1;" edge="1" parent="1">
          <mxGeometry width="50" height="50" relative="1" as="geometry">
            <mxPoint x="1720" y="133.16" as="sourcePoint" />
            <mxPoint x="1880" y="133" as="targetPoint" />
          </mxGeometry>
        </mxCell>
        <mxCell id="APXlqNI634iQu10qJnpK-298" value="I_5" style="edgeLabel;html=1;align=center;verticalAlign=middle;resizable=0;points=[];fontSize=15;" vertex="1" connectable="0" parent="APXlqNI634iQu10qJnpK-297">
          <mxGeometry x="0.2057" y="-1" relative="1" as="geometry">
            <mxPoint x="24" y="-1" as="offset" />
          </mxGeometry>
        </mxCell>
        <mxCell id="APXlqNI634iQu10qJnpK-299" value="" style="endArrow=none;html=1;rounded=0;fontSize=15;strokeWidth=1;" edge="1" parent="1">
          <mxGeometry width="50" height="50" relative="1" as="geometry">
            <mxPoint x="1760" y="160" as="sourcePoint" />
            <mxPoint x="1880" y="160" as="targetPoint" />
          </mxGeometry>
        </mxCell>
        <mxCell id="APXlqNI634iQu10qJnpK-300" value="I_8" style="edgeLabel;html=1;align=center;verticalAlign=middle;resizable=0;points=[];fontSize=15;" vertex="1" connectable="0" parent="APXlqNI634iQu10qJnpK-299">
          <mxGeometry x="0.2057" y="-1" relative="1" as="geometry">
            <mxPoint x="8" y="-1" as="offset" />
          </mxGeometry>
        </mxCell>
        <mxCell id="APXlqNI634iQu10qJnpK-301" value="" style="endArrow=none;html=1;rounded=0;fontSize=15;strokeWidth=1;" edge="1" parent="1">
          <mxGeometry width="50" height="50" relative="1" as="geometry">
            <mxPoint x="1800" y="180" as="sourcePoint" />
            <mxPoint x="1880" y="180" as="targetPoint" />
          </mxGeometry>
        </mxCell>
        <mxCell id="APXlqNI634iQu10qJnpK-302" value="I_10" style="edgeLabel;html=1;align=center;verticalAlign=middle;resizable=0;points=[];fontSize=15;" vertex="1" connectable="0" parent="APXlqNI634iQu10qJnpK-301">
          <mxGeometry x="0.2057" y="-1" relative="1" as="geometry">
            <mxPoint x="-8" as="offset" />
          </mxGeometry>
        </mxCell>
        <mxCell id="APXlqNI634iQu10qJnpK-303" value="" style="endArrow=none;html=1;rounded=0;fontSize=15;strokeWidth=2;" edge="1" parent="1">
          <mxGeometry width="50" height="50" relative="1" as="geometry">
            <mxPoint x="1880" y="200" as="sourcePoint" />
            <mxPoint x="1880" y="130" as="targetPoint" />
            <Array as="points">
              <mxPoint x="1880" y="150" />
            </Array>
          </mxGeometry>
        </mxCell>
        <mxCell id="APXlqNI634iQu10qJnpK-304" value="" style="endArrow=none;html=1;rounded=0;fontSize=15;strokeWidth=1;" edge="1" parent="1">
          <mxGeometry width="50" height="50" relative="1" as="geometry">
            <mxPoint x="1880" y="160" as="sourcePoint" />
            <mxPoint x="2080" y="160" as="targetPoint" />
          </mxGeometry>
        </mxCell>
        <mxCell id="APXlqNI634iQu10qJnpK-305" value="M_14" style="edgeLabel;html=1;align=center;verticalAlign=middle;resizable=0;points=[];fontSize=15;" vertex="1" connectable="0" parent="APXlqNI634iQu10qJnpK-304">
          <mxGeometry x="-0.3748" y="-1" relative="1" as="geometry">
            <mxPoint x="125" as="offset" />
          </mxGeometry>
        </mxCell>
        <mxCell id="APXlqNI634iQu10qJnpK-306" value="" style="endArrow=none;html=1;rounded=0;fontSize=15;strokeWidth=1;" edge="1" parent="1">
          <mxGeometry width="50" height="50" relative="1" as="geometry">
            <mxPoint x="1720" y="400.15999999999997" as="sourcePoint" />
            <mxPoint x="1880" y="400" as="targetPoint" />
          </mxGeometry>
        </mxCell>
        <mxCell id="APXlqNI634iQu10qJnpK-307" value="I_5" style="edgeLabel;html=1;align=center;verticalAlign=middle;resizable=0;points=[];fontSize=15;" vertex="1" connectable="0" parent="APXlqNI634iQu10qJnpK-306">
          <mxGeometry x="0.2057" y="-1" relative="1" as="geometry">
            <mxPoint x="24" y="-1" as="offset" />
          </mxGeometry>
        </mxCell>
        <mxCell id="APXlqNI634iQu10qJnpK-308" value="" style="endArrow=none;html=1;rounded=0;fontSize=15;strokeWidth=1;" edge="1" parent="1">
          <mxGeometry width="50" height="50" relative="1" as="geometry">
            <mxPoint x="1760" y="427" as="sourcePoint" />
            <mxPoint x="1880" y="427" as="targetPoint" />
          </mxGeometry>
        </mxCell>
        <mxCell id="APXlqNI634iQu10qJnpK-309" value="I_8" style="edgeLabel;html=1;align=center;verticalAlign=middle;resizable=0;points=[];fontSize=15;" vertex="1" connectable="0" parent="APXlqNI634iQu10qJnpK-308">
          <mxGeometry x="0.2057" y="-1" relative="1" as="geometry">
            <mxPoint x="8" y="-1" as="offset" />
          </mxGeometry>
        </mxCell>
        <mxCell id="APXlqNI634iQu10qJnpK-310" value="" style="endArrow=none;html=1;rounded=0;fontSize=15;strokeWidth=1;" edge="1" parent="1">
          <mxGeometry width="50" height="50" relative="1" as="geometry">
            <mxPoint x="1800" y="460" as="sourcePoint" />
            <mxPoint x="1880" y="460" as="targetPoint" />
          </mxGeometry>
        </mxCell>
        <mxCell id="APXlqNI634iQu10qJnpK-311" value="I_10" style="edgeLabel;html=1;align=center;verticalAlign=middle;resizable=0;points=[];fontSize=15;" vertex="1" connectable="0" parent="APXlqNI634iQu10qJnpK-310">
          <mxGeometry x="0.2057" y="-1" relative="1" as="geometry">
            <mxPoint x="-8" as="offset" />
          </mxGeometry>
        </mxCell>
        <mxCell id="APXlqNI634iQu10qJnpK-312" value="" style="endArrow=none;html=1;rounded=0;fontSize=15;strokeWidth=1;" edge="1" parent="1">
          <mxGeometry width="50" height="50" relative="1" as="geometry">
            <mxPoint x="1880" y="427" as="sourcePoint" />
            <mxPoint x="1940" y="427" as="targetPoint" />
          </mxGeometry>
        </mxCell>
        <mxCell id="APXlqNI634iQu10qJnpK-313" value="M_12" style="edgeLabel;html=1;align=center;verticalAlign=middle;resizable=0;points=[];fontSize=15;" vertex="1" connectable="0" parent="APXlqNI634iQu10qJnpK-312">
          <mxGeometry x="-0.3748" y="-1" relative="1" as="geometry">
            <mxPoint x="31" as="offset" />
          </mxGeometry>
        </mxCell>
        <mxCell id="APXlqNI634iQu10qJnpK-314" value="" style="endArrow=none;html=1;rounded=0;fontSize=15;strokeWidth=1;" edge="1" parent="1">
          <mxGeometry width="50" height="50" relative="1" as="geometry">
            <mxPoint x="1680" y="370" as="sourcePoint" />
            <mxPoint x="1880" y="370" as="targetPoint" />
          </mxGeometry>
        </mxCell>
        <mxCell id="APXlqNI634iQu10qJnpK-315" value="M_3" style="edgeLabel;html=1;align=center;verticalAlign=middle;resizable=0;points=[];fontSize=15;" vertex="1" connectable="0" parent="APXlqNI634iQu10qJnpK-314">
          <mxGeometry x="0.2057" y="-1" relative="1" as="geometry">
            <mxPoint x="39" as="offset" />
          </mxGeometry>
        </mxCell>
        <mxCell id="APXlqNI634iQu10qJnpK-316" value="" style="endArrow=none;html=1;rounded=0;fontSize=15;strokeWidth=1;" edge="1" parent="1">
          <mxGeometry width="50" height="50" relative="1" as="geometry">
            <mxPoint x="1680" y="499.43" as="sourcePoint" />
            <mxPoint x="1880" y="499.43" as="targetPoint" />
          </mxGeometry>
        </mxCell>
        <mxCell id="APXlqNI634iQu10qJnpK-317" value="M_4" style="edgeLabel;html=1;align=center;verticalAlign=middle;resizable=0;points=[];fontSize=15;" vertex="1" connectable="0" parent="APXlqNI634iQu10qJnpK-316">
          <mxGeometry x="0.2057" y="-1" relative="1" as="geometry">
            <mxPoint x="39" as="offset" />
          </mxGeometry>
        </mxCell>
        <mxCell id="APXlqNI634iQu10qJnpK-318" value="" style="endArrow=none;html=1;rounded=0;fontSize=15;strokeWidth=2;" edge="1" parent="1">
          <mxGeometry width="50" height="50" relative="1" as="geometry">
            <mxPoint x="1880" y="500" as="sourcePoint" />
            <mxPoint x="1880" y="370" as="targetPoint" />
            <Array as="points">
              <mxPoint x="1880" y="390" />
            </Array>
          </mxGeometry>
        </mxCell>
        <mxCell id="APXlqNI634iQu10qJnpK-319" value="" style="endArrow=none;html=1;rounded=0;fontSize=15;strokeWidth=1;" edge="1" parent="1">
          <mxGeometry width="50" height="50" relative="1" as="geometry">
            <mxPoint x="1719.9999999999995" y="670.1599999999999" as="sourcePoint" />
            <mxPoint x="1879.9999999999995" y="670" as="targetPoint" />
          </mxGeometry>
        </mxCell>
        <mxCell id="APXlqNI634iQu10qJnpK-320" value="I_5" style="edgeLabel;html=1;align=center;verticalAlign=middle;resizable=0;points=[];fontSize=15;" vertex="1" connectable="0" parent="APXlqNI634iQu10qJnpK-319">
          <mxGeometry x="0.2057" y="-1" relative="1" as="geometry">
            <mxPoint x="24" y="-1" as="offset" />
          </mxGeometry>
        </mxCell>
        <mxCell id="APXlqNI634iQu10qJnpK-321" value="" style="endArrow=none;html=1;rounded=0;fontSize=15;strokeWidth=1;" edge="1" parent="1">
          <mxGeometry width="50" height="50" relative="1" as="geometry">
            <mxPoint x="1759.9999999999995" y="697" as="sourcePoint" />
            <mxPoint x="1879.9999999999995" y="697" as="targetPoint" />
          </mxGeometry>
        </mxCell>
        <mxCell id="APXlqNI634iQu10qJnpK-322" value="I_8" style="edgeLabel;html=1;align=center;verticalAlign=middle;resizable=0;points=[];fontSize=15;" vertex="1" connectable="0" parent="APXlqNI634iQu10qJnpK-321">
          <mxGeometry x="0.2057" y="-1" relative="1" as="geometry">
            <mxPoint x="8" y="-1" as="offset" />
          </mxGeometry>
        </mxCell>
        <mxCell id="APXlqNI634iQu10qJnpK-323" value="" style="endArrow=none;html=1;rounded=0;fontSize=15;strokeWidth=1;" edge="1" parent="1">
          <mxGeometry width="50" height="50" relative="1" as="geometry">
            <mxPoint x="1799.9999999999995" y="730" as="sourcePoint" />
            <mxPoint x="1879.9999999999995" y="730" as="targetPoint" />
          </mxGeometry>
        </mxCell>
        <mxCell id="APXlqNI634iQu10qJnpK-324" value="I_10" style="edgeLabel;html=1;align=center;verticalAlign=middle;resizable=0;points=[];fontSize=15;" vertex="1" connectable="0" parent="APXlqNI634iQu10qJnpK-323">
          <mxGeometry x="0.2057" y="-1" relative="1" as="geometry">
            <mxPoint x="-8" as="offset" />
          </mxGeometry>
        </mxCell>
        <mxCell id="APXlqNI634iQu10qJnpK-325" value="" style="endArrow=none;html=1;rounded=0;fontSize=15;strokeWidth=1;" edge="1" parent="1">
          <mxGeometry width="50" height="50" relative="1" as="geometry">
            <mxPoint x="1879.9999999999995" y="697" as="sourcePoint" />
            <mxPoint x="1939.9999999999995" y="697" as="targetPoint" />
          </mxGeometry>
        </mxCell>
        <mxCell id="APXlqNI634iQu10qJnpK-326" value="M_13" style="edgeLabel;html=1;align=center;verticalAlign=middle;resizable=0;points=[];fontSize=15;" vertex="1" connectable="0" parent="APXlqNI634iQu10qJnpK-325">
          <mxGeometry x="-0.3748" y="-1" relative="1" as="geometry">
            <mxPoint x="31" as="offset" />
          </mxGeometry>
        </mxCell>
        <mxCell id="APXlqNI634iQu10qJnpK-327" value="" style="endArrow=none;html=1;rounded=0;fontSize=15;strokeWidth=1;" edge="1" parent="1">
          <mxGeometry width="50" height="50" relative="1" as="geometry">
            <mxPoint x="1679.9999999999995" y="640" as="sourcePoint" />
            <mxPoint x="1879.9999999999995" y="640" as="targetPoint" />
          </mxGeometry>
        </mxCell>
        <mxCell id="APXlqNI634iQu10qJnpK-328" value="M_5" style="edgeLabel;html=1;align=center;verticalAlign=middle;resizable=0;points=[];fontSize=15;" vertex="1" connectable="0" parent="APXlqNI634iQu10qJnpK-327">
          <mxGeometry x="0.2057" y="-1" relative="1" as="geometry">
            <mxPoint x="39" as="offset" />
          </mxGeometry>
        </mxCell>
        <mxCell id="APXlqNI634iQu10qJnpK-329" value="" style="endArrow=none;html=1;rounded=0;fontSize=15;strokeWidth=1;" edge="1" parent="1">
          <mxGeometry width="50" height="50" relative="1" as="geometry">
            <mxPoint x="1679.9999999999995" y="769.4300000000001" as="sourcePoint" />
            <mxPoint x="1879.9999999999995" y="769.4300000000001" as="targetPoint" />
          </mxGeometry>
        </mxCell>
        <mxCell id="APXlqNI634iQu10qJnpK-330" value="M_6" style="edgeLabel;html=1;align=center;verticalAlign=middle;resizable=0;points=[];fontSize=15;" vertex="1" connectable="0" parent="APXlqNI634iQu10qJnpK-329">
          <mxGeometry x="0.2057" y="-1" relative="1" as="geometry">
            <mxPoint x="39" as="offset" />
          </mxGeometry>
        </mxCell>
        <mxCell id="APXlqNI634iQu10qJnpK-331" value="" style="endArrow=none;html=1;rounded=0;fontSize=15;strokeWidth=2;" edge="1" parent="1">
          <mxGeometry width="50" height="50" relative="1" as="geometry">
            <mxPoint x="1879.9999999999995" y="770" as="sourcePoint" />
            <mxPoint x="1879.9999999999995" y="640" as="targetPoint" />
            <Array as="points">
              <mxPoint x="1880" y="660" />
            </Array>
          </mxGeometry>
        </mxCell>
        <mxCell id="APXlqNI634iQu10qJnpK-345" value="" style="endArrow=none;html=1;rounded=0;fontSize=15;strokeWidth=1;" edge="1" parent="1">
          <mxGeometry width="50" height="50" relative="1" as="geometry">
            <mxPoint x="1719.9999999999995" y="960.1599999999999" as="sourcePoint" />
            <mxPoint x="1879.9999999999995" y="960" as="targetPoint" />
          </mxGeometry>
        </mxCell>
        <mxCell id="APXlqNI634iQu10qJnpK-346" value="I_5" style="edgeLabel;html=1;align=center;verticalAlign=middle;resizable=0;points=[];fontSize=15;" vertex="1" connectable="0" parent="APXlqNI634iQu10qJnpK-345">
          <mxGeometry x="0.2057" y="-1" relative="1" as="geometry">
            <mxPoint x="24" y="-1" as="offset" />
          </mxGeometry>
        </mxCell>
        <mxCell id="APXlqNI634iQu10qJnpK-347" value="" style="endArrow=none;html=1;rounded=0;fontSize=15;strokeWidth=1;" edge="1" parent="1">
          <mxGeometry width="50" height="50" relative="1" as="geometry">
            <mxPoint x="1759.9999999999995" y="1000" as="sourcePoint" />
            <mxPoint x="1879.9999999999995" y="1000" as="targetPoint" />
          </mxGeometry>
        </mxCell>
        <mxCell id="APXlqNI634iQu10qJnpK-348" value="I_8" style="edgeLabel;html=1;align=center;verticalAlign=middle;resizable=0;points=[];fontSize=15;" vertex="1" connectable="0" parent="APXlqNI634iQu10qJnpK-347">
          <mxGeometry x="0.2057" y="-1" relative="1" as="geometry">
            <mxPoint x="8" y="-1" as="offset" />
          </mxGeometry>
        </mxCell>
        <mxCell id="APXlqNI634iQu10qJnpK-349" value="" style="endArrow=none;html=1;rounded=0;fontSize=15;strokeWidth=1;" edge="1" parent="1">
          <mxGeometry width="50" height="50" relative="1" as="geometry">
            <mxPoint x="1799.9999999999995" y="1039.58" as="sourcePoint" />
            <mxPoint x="1879.9999999999995" y="1039.58" as="targetPoint" />
          </mxGeometry>
        </mxCell>
        <mxCell id="APXlqNI634iQu10qJnpK-350" value="I_10" style="edgeLabel;html=1;align=center;verticalAlign=middle;resizable=0;points=[];fontSize=15;" vertex="1" connectable="0" parent="APXlqNI634iQu10qJnpK-349">
          <mxGeometry x="0.2057" y="-1" relative="1" as="geometry">
            <mxPoint x="-8" as="offset" />
          </mxGeometry>
        </mxCell>
        <mxCell id="APXlqNI634iQu10qJnpK-351" value="" style="endArrow=none;html=1;rounded=0;fontSize=15;strokeWidth=1;" edge="1" parent="1">
          <mxGeometry width="50" height="50" relative="1" as="geometry">
            <mxPoint x="1879.9999999999995" y="1000" as="sourcePoint" />
            <mxPoint x="1939.9999999999995" y="1000" as="targetPoint" />
          </mxGeometry>
        </mxCell>
        <mxCell id="APXlqNI634iQu10qJnpK-352" value="M_11" style="edgeLabel;html=1;align=center;verticalAlign=middle;resizable=0;points=[];fontSize=15;" vertex="1" connectable="0" parent="APXlqNI634iQu10qJnpK-351">
          <mxGeometry x="-0.3748" y="-1" relative="1" as="geometry">
            <mxPoint x="31" as="offset" />
          </mxGeometry>
        </mxCell>
        <mxCell id="APXlqNI634iQu10qJnpK-353" value="" style="endArrow=none;html=1;rounded=0;fontSize=15;strokeWidth=1;" edge="1" parent="1">
          <mxGeometry width="50" height="50" relative="1" as="geometry">
            <mxPoint x="1679.9999999999995" y="930" as="sourcePoint" />
            <mxPoint x="1879.9999999999995" y="930" as="targetPoint" />
          </mxGeometry>
        </mxCell>
        <mxCell id="APXlqNI634iQu10qJnpK-354" value="M_1" style="edgeLabel;html=1;align=center;verticalAlign=middle;resizable=0;points=[];fontSize=15;" vertex="1" connectable="0" parent="APXlqNI634iQu10qJnpK-353">
          <mxGeometry x="0.2057" y="-1" relative="1" as="geometry">
            <mxPoint x="39" as="offset" />
          </mxGeometry>
        </mxCell>
        <mxCell id="APXlqNI634iQu10qJnpK-355" value="" style="endArrow=none;html=1;rounded=0;fontSize=15;strokeWidth=1;" edge="1" parent="1">
          <mxGeometry width="50" height="50" relative="1" as="geometry">
            <mxPoint x="1679.9999999999995" y="1080" as="sourcePoint" />
            <mxPoint x="1879.9999999999995" y="1080" as="targetPoint" />
          </mxGeometry>
        </mxCell>
        <mxCell id="APXlqNI634iQu10qJnpK-356" value="M_2" style="edgeLabel;html=1;align=center;verticalAlign=middle;resizable=0;points=[];fontSize=15;" vertex="1" connectable="0" parent="APXlqNI634iQu10qJnpK-355">
          <mxGeometry x="0.2057" y="-1" relative="1" as="geometry">
            <mxPoint x="39" as="offset" />
          </mxGeometry>
        </mxCell>
        <mxCell id="APXlqNI634iQu10qJnpK-357" value="" style="endArrow=none;html=1;rounded=0;fontSize=15;strokeWidth=2;" edge="1" parent="1">
          <mxGeometry width="50" height="50" relative="1" as="geometry">
            <mxPoint x="1880" y="1080" as="sourcePoint" />
            <mxPoint x="1879.9999999999995" y="930" as="targetPoint" />
            <Array as="points">
              <mxPoint x="1880" y="950" />
            </Array>
          </mxGeometry>
        </mxCell>
        <mxCell id="APXlqNI634iQu10qJnpK-358" value="" style="endArrow=none;html=1;rounded=0;fontSize=15;strokeWidth=2;" edge="1" parent="1">
          <mxGeometry width="50" height="50" relative="1" as="geometry">
            <mxPoint x="2000" y="1000" as="sourcePoint" />
            <mxPoint x="1999.9999999999995" y="430" as="targetPoint" />
            <Array as="points">
              <mxPoint x="2000" y="450" />
            </Array>
          </mxGeometry>
        </mxCell>
        <mxCell id="APXlqNI634iQu10qJnpK-359" value="" style="endArrow=none;html=1;rounded=0;fontSize=15;strokeWidth=1;" edge="1" parent="1">
          <mxGeometry width="50" height="50" relative="1" as="geometry">
            <mxPoint x="1950" y="430" as="sourcePoint" />
            <mxPoint x="2000" y="430" as="targetPoint" />
          </mxGeometry>
        </mxCell>
        <mxCell id="APXlqNI634iQu10qJnpK-360" value="" style="endArrow=none;html=1;rounded=0;fontSize=15;strokeWidth=1;" edge="1" parent="1">
          <mxGeometry width="50" height="50" relative="1" as="geometry">
            <mxPoint x="1950" y="700" as="sourcePoint" />
            <mxPoint x="2000" y="700" as="targetPoint" />
          </mxGeometry>
        </mxCell>
        <mxCell id="APXlqNI634iQu10qJnpK-361" value="" style="endArrow=none;html=1;rounded=0;fontSize=15;strokeWidth=1;" edge="1" parent="1">
          <mxGeometry width="50" height="50" relative="1" as="geometry">
            <mxPoint x="1950" y="1000" as="sourcePoint" />
            <mxPoint x="2000" y="1000" as="targetPoint" />
          </mxGeometry>
        </mxCell>
        <mxCell id="APXlqNI634iQu10qJnpK-362" value="" style="endArrow=none;html=1;rounded=0;fontSize=15;strokeWidth=1;" edge="1" parent="1">
          <mxGeometry width="50" height="50" relative="1" as="geometry">
            <mxPoint x="2000" y="700" as="sourcePoint" />
            <mxPoint x="2080" y="700" as="targetPoint" />
          </mxGeometry>
        </mxCell>
        <mxCell id="APXlqNI634iQu10qJnpK-363" value="M_15" style="edgeLabel;html=1;align=center;verticalAlign=middle;resizable=0;points=[];fontSize=15;" vertex="1" connectable="0" parent="APXlqNI634iQu10qJnpK-362">
          <mxGeometry x="0.7312" y="1" relative="1" as="geometry">
            <mxPoint as="offset" />
          </mxGeometry>
        </mxCell>
      </root>
    </mxGraphModel>
  </diagram>
</mxfile>
